<svg width="26" height="161" viewBox="0 0 25 161" fill="none" xmlns="http://www.w3.org/2000/svg">
<path d="M17.34 10.22L12.172 8.622V13.96L17.34 12.362C17.544 12.2713 17.6913 12.1693 17.782 12.056C17.8727 11.9653 17.918 11.852 17.918 11.716V10.866C17.918 10.73 17.8727 10.6053 17.782 10.492C17.6913 10.4013 17.544 10.3107 17.34 10.22ZM1.224 8.282C0.793333 8.282 0.476 8.18 0.272 7.976C0.0906667 7.79467 0 7.48867 0 7.058V2.06C0 1.62933 0.0906667 1.312 0.272 1.108C0.476 0.926667 0.793333 0.836 1.224 0.836L10.2 0.836C10.88 0.836 11.662 0.938 12.546 1.142C13.43 1.36867 14.4613 1.70867 15.64 2.162L23.358 5.12C23.7433 5.256 24.0267 5.46 24.208 5.732C24.3893 6.02667 24.48 6.40067 24.48 6.854V16C24.48 16.4307 24.3893 16.782 24.208 17.054C24.0267 17.3487 23.7433 17.564 23.358 17.7L15.64 20.658C14.4613 21.1113 13.43 21.44 12.546 21.644C11.662 21.8707 10.88 21.984 10.2 21.984L1.224 21.984C0.793333 21.984 0.476 21.882 0.272 21.678C0.0906667 21.4967 0 21.1907 0 20.76V15.626C0 15.1727 0.0906667 14.8327 0.272 14.606C0.476 14.402 0.793333 14.3 1.224 14.3H5.984V8.282H1.224ZM0 40.4619V27.4059C0 26.9753 0.0906667 26.6579 0.272 26.4539C0.476 26.2726 0.793333 26.1819 1.224 26.1819L23.256 26.1819C23.6867 26.1819 23.9927 26.2726 24.174 26.4539C24.378 26.6579 24.48 26.9753 24.48 27.4059L24.48 38.2519C24.48 40.4733 24.0493 42.1166 23.188 43.1819C22.3493 44.2473 21.046 44.7799 19.278 44.7799H17.646C16.694 44.7799 15.912 44.6099 15.3 44.2699C14.7107 43.9526 14.2687 43.4539 13.974 42.7739C13.838 44.2246 13.3393 45.3013 12.478 46.0039C11.6167 46.7066 10.3587 47.0579 8.704 47.0579H5.576C3.672 47.0579 2.26667 46.5139 1.36 45.4259C0.453333 44.3606 0 42.7059 0 40.4619ZM18.7 33.8319H15.028V36.7219C15.028 37.1526 15.1413 37.4699 15.368 37.6739C15.5947 37.9006 15.9347 38.0139 16.388 38.0139H17.34C17.7933 38.0139 18.1333 37.9006 18.36 37.6739C18.5867 37.4699 18.7 37.1526 18.7 36.7219V33.8319ZM9.792 33.8319H5.78V38.2519C5.78 38.6826 5.89333 38.9999 6.12 39.2039C6.34667 39.4306 6.68667 39.5439 7.14 39.5439H8.466C8.91933 39.5439 9.248 39.4306 9.452 39.2039C9.67867 38.9999 9.792 38.6826 9.792 38.2519V33.8319ZM0 62.1747V51.4307C0 51 0.0906667 50.6827 0.272 50.4787C0.476 50.2973 0.793333 50.2067 1.224 50.2067H5.202C5.63267 50.2067 5.93867 50.2973 6.12 50.4787C6.324 50.6827 6.426 51 6.426 51.4307V60.5767C6.426 60.8713 6.51667 61.0867 6.698 61.2227C6.902 61.3813 7.14 61.4607 7.412 61.4607C7.79733 61.4607 8.08067 61.3813 8.262 61.2227C8.44333 61.0867 8.54533 60.8713 8.568 60.5767L9.282 55.4767C9.50867 53.89 10.03 52.6093 10.846 51.6347C11.662 50.6827 13.022 50.2067 14.926 50.2067H18.496C20.4227 50.2067 21.896 50.83 22.916 52.0767C23.9587 53.3233 24.48 55.046 24.48 57.2447V66.7647C24.48 67.1953 24.378 67.5013 24.174 67.6827C23.9927 67.8867 23.6867 67.9887 23.256 67.9887H19.21C18.7793 67.9887 18.462 67.8867 18.258 67.6827C18.0767 67.5013 17.986 67.1953 17.986 66.7647V58.8427C17.986 58.548 17.884 58.3213 17.68 58.1627C17.4987 58.004 17.2607 57.9247 16.966 57.9247C16.6713 57.9247 16.422 58.004 16.218 58.1627C16.014 58.3213 15.9007 58.548 15.878 58.8427L15.198 63.9087C14.9713 65.4953 14.45 66.776 13.634 67.7507C12.818 68.7253 11.458 69.2127 9.554 69.2127H5.984C4.05733 69.2127 2.57267 68.578 1.53 67.3087C0.51 66.062 0 64.3507 0 62.1747ZM0 89.9319V74.1559C0 73.7253 0.0906667 73.4079 0.272 73.2039C0.476 73.0226 0.793333 72.9319 1.224 72.9319H23.256C23.6867 72.9319 23.9927 73.0226 24.174 73.2039C24.378 73.4079 24.48 73.7253 24.48 74.1559V89.9319C24.48 90.3626 24.378 90.6686 24.174 90.8499C23.9927 91.0539 23.6867 91.1559 23.256 91.1559H19.278C18.8473 91.1559 18.53 91.0539 18.326 90.8499C18.1447 90.6686 18.054 90.3626 18.054 89.9319V80.5479H15.436V87.1779C15.436 87.6086 15.334 87.9146 15.13 88.0959C14.9487 88.2999 14.6427 88.4019 14.212 88.4019H10.574C10.1433 88.4019 9.826 88.2999 9.622 88.0959C9.44067 87.9146 9.35 87.6086 9.35 87.1779V80.5479H6.426V89.9319C6.426 90.3626 6.324 90.6686 6.12 90.8499C5.93867 91.0539 5.63267 91.1559 5.202 91.1559H1.224C0.793333 91.1559 0.476 91.0539 0.272 90.8499C0.0906667 90.6686 0 90.3626 0 89.9319ZM0 101.502V96.402C0 95.9714 0.0906667 95.654 0.272 95.45C0.476 95.2687 0.793333 95.178 1.224 95.178H23.256C23.6867 95.178 23.9927 95.2687 24.174 95.45C24.378 95.654 24.48 95.9714 24.48 96.402V99.938C24.48 100.369 24.412 100.731 24.276 101.026C24.14 101.343 23.902 101.649 23.562 101.944L16.014 108.54H23.256C23.6867 108.54 23.9927 108.631 24.174 108.812C24.378 109.016 24.48 109.333 24.48 109.764V114.864C24.48 115.295 24.378 115.601 24.174 115.782C23.9927 115.986 23.6867 116.088 23.256 116.088H1.224C0.793333 116.088 0.476 115.986 0.272 115.782C0.0906667 115.601 0 115.295 0 114.864V109.764C0 109.333 0.0906667 109.016 0.272 108.812C0.476 108.631 0.793333 108.54 1.224 108.54H5.406L12.444 102.726H1.224C0.793333 102.726 0.476 102.624 0.272 102.42C0.0906667 102.239 0 101.933 0 101.502ZM0 137.064V128.768C0 125.934 0.566667 123.826 1.7 122.444C2.83333 121.084 4.57867 120.404 6.936 120.404H17.51C19.8673 120.404 21.6127 121.084 22.746 122.444C23.902 123.826 24.48 125.934 24.48 128.768V137.064C24.48 137.494 24.378 137.8 24.174 137.982C23.9927 138.186 23.6867 138.288 23.256 138.288H19.142C18.7113 138.288 18.394 138.186 18.19 137.982C18.0087 137.8 17.918 137.494 17.918 137.064V130.23C17.918 129.527 17.7707 129.006 17.476 128.666C17.204 128.326 16.7847 128.156 16.218 128.156H8.126C7.55933 128.156 7.14 128.326 6.868 128.666C6.61867 129.006 6.494 129.527 6.494 130.23V137.064C6.494 137.494 6.392 137.8 6.188 137.982C6.00667 138.186 5.70067 138.288 5.27 138.288H1.224C0.793333 138.288 0.476 138.186 0.272 137.982C0.0906667 137.8 0 137.494 0 137.064ZM0 159.127V143.351C0 142.921 0.0906667 142.603 0.272 142.399C0.476 142.218 0.793333 142.127 1.224 142.127H23.256C23.6867 142.127 23.9927 142.218 24.174 142.399C24.378 142.603 24.48 142.921 24.48 143.351L24.48 159.127C24.48 159.558 24.378 159.864 24.174 160.045C23.9927 160.249 23.6867 160.351 23.256 160.351H19.278C18.8473 160.351 18.53 160.249 18.326 160.045C18.1447 159.864 18.054 159.558 18.054 159.127V149.743H15.436V156.373C15.436 156.804 15.334 157.11 15.13 157.291C14.9487 157.495 14.6427 157.597 14.212 157.597H10.574C10.1433 157.597 9.826 157.495 9.622 157.291C9.44067 157.11 9.35 156.804 9.35 156.373V149.743H6.426V159.127C6.426 159.558 6.324 159.864 6.12 160.045C5.93867 160.249 5.63267 160.351 5.202 160.351H1.224C0.793333 160.351 0.476 160.249 0.272 160.045C0.0906667 159.864 0 159.558 0 159.127Z" fill="#DAFEA4"/>
</svg>
