<?xml version="1.0"?>
<svg xmlns="http://www.w3.org/2000/svg" viewBox="0 0 512 512" width="512" height="512"><g id="User_Block" data-name="User Block"><g id="Outline"><path d="M505.62,199.54a254.874,254.874,0,0,0-45.64-98.2,257.871,257.871,0,0,0-36.72-39.17,8,8,0,0,0-10.47,12.1A240,240,0,1,1,70.25,408.029,8,8,0,1,0,57.89,418.18a256.706,256.706,0,0,0,86.67,68.259,254.7,254.7,0,0,0,53.3,18.8,258.43,258.43,0,0,0,109.57,1.39,254.667,254.667,0,0,0,91.53-38.521,256.581,256.581,0,0,0,92.75-112.63,254.216,254.216,0,0,0,14.92-48.049,258.41,258.41,0,0,0-1.01-107.89Z"/><path d="M45.41,379.149a8.067,8.067,0,0,0-4.24,1.221,8,8,0,1,0,4.24-1.221Z"/><path d="M388.14,55.56a8,8,0,1,0-3.43-5.081A7.927,7.927,0,0,0,388.14,55.56Z"/><path d="M37.53,355.7l-.01-.03A240.065,240.065,0,0,1,255.83,15.83,237.832,237.832,0,0,1,361.28,40.18a8,8,0,1,0,7.04-14.37A254.881,254.881,0,0,0,255.85-.17h-.02a257.177,257.177,0,0,0-51.59,5.21A254.365,254.365,0,0,0,112.7,43.56,256.819,256.819,0,0,0,19.95,156.189,255.545,255.545,0,0,0-.17,255.83a257.751,257.751,0,0,0,6,55.35,254.319,254.319,0,0,0,17.16,51.179,8.009,8.009,0,0,0,7.27,4.67h.01a7.8,7.8,0,0,0,3.32-.729A8,8,0,0,0,37.53,355.7Z"/><path d="M89.435,131.023A206.136,206.136,0,0,0,47.83,255.83c0,114.691,93.309,208,208,208a206.136,206.136,0,0,0,124.807-41.6L388,416.688,94.972,123.658ZM363.5,414.815A190.151,190.151,0,0,1,255.83,447.83c-105.869,0-192-86.131-192-192A190.151,190.151,0,0,1,96.845,148.158Z"/><path d="M422.225,380.637a206.134,206.134,0,0,0,41.6-124.807c0-114.691-93.309-208-208-208A206.131,206.131,0,0,0,131.023,89.436l-7.365,5.536L416.688,388ZM148.158,96.845A190.151,190.151,0,0,1,255.83,63.83c105.869,0,192,86.131,192,192A190.151,190.151,0,0,1,414.815,363.5Z"/><path d="M262.72,103.67h-4.91a125.635,125.635,0,0,0-53.278,11.713,8,8,0,1,0,6.736,14.513A109.754,109.754,0,0,1,257.81,119.67h4.91A113.273,113.273,0,0,1,376,232.94c0,16.669-3.89,33.54-11.562,50.145a8,8,0,1,0,14.524,6.711C387.614,271.072,392,251.943,392,232.94A129.272,129.272,0,0,0,262.72,103.67Z"/><path d="M113.052,300.3l19.232,8.734,11.086,41.627A22.786,22.786,0,0,0,165.54,368H208v20.992a178.816,178.816,0,0,0-22.773,15.188,8,8,0,1,0,9.886,12.58,163.887,163.887,0,0,1,24.627-15.947L224,398.56V352H165.54a6.826,6.826,0,0,1-6.648-5.217L145.8,297.6l-25.588-11.622,26.832-53.652V230.44c0-1.874.047-3.752.14-5.586a8,8,0,1,0-15.98-.808c-.075,1.475-.123,2.974-.146,4.476l-25.416,50.823a15.291,15.291,0,0,0-.759,12.031A15.546,15.546,0,0,0,113.052,300.3Z"/><path d="M316.822,416.021A8,8,0,0,0,327.8,404.38,201.362,201.362,0,0,0,312,390.967V384a8,8,0,0,0-16,0v15.022l3.268,2.4A186.329,186.329,0,0,1,316.822,416.021Z"/></g></g></svg>
