<svg width="25" height="214" viewBox="0 0 25 214" fill="none" xmlns="http://www.w3.org/2000/svg">
<path d="M17.34 10.22L12.172 8.622V13.96L17.34 12.362C17.544 12.2713 17.6913 12.1693 17.782 12.056C17.8727 11.9653 17.918 11.852 17.918 11.716V10.866C17.918 10.73 17.8727 10.6053 17.782 10.492C17.6913 10.4013 17.544 10.3107 17.34 10.22ZM1.224 8.282C0.793333 8.282 0.476 8.18 0.272 7.976C0.0906667 7.79467 0 7.48867 0 7.058V2.06C0 1.62933 0.0906667 1.312 0.272 1.108C0.476 0.926667 0.793333 0.836 1.224 0.836L10.2 0.836C10.88 0.836 11.662 0.938 12.546 1.142C13.43 1.36867 14.4613 1.70867 15.64 2.162L23.358 5.12C23.7433 5.256 24.0267 5.46 24.208 5.732C24.3893 6.02667 24.48 6.40067 24.48 6.854V16C24.48 16.4307 24.3893 16.782 24.208 17.054C24.0267 17.3487 23.7433 17.564 23.358 17.7L15.64 20.658C14.4613 21.1113 13.43 21.44 12.546 21.644C11.662 21.8707 10.88 21.984 10.2 21.984L1.224 21.984C0.793333 21.984 0.476 21.882 0.272 21.678C0.0906667 21.4967 0 21.1907 0 20.76V15.626C0 15.1727 0.0906667 14.8327 0.272 14.606C0.476 14.402 0.793333 14.3 1.224 14.3H5.984V8.282H1.224ZM0 38.8639V27.4059C0 26.9753 0.0906667 26.6579 0.272 26.4539C0.476 26.2726 0.793333 26.1819 1.224 26.1819L23.256 26.1819C23.6867 26.1819 23.9927 26.2726 24.174 26.4539C24.378 26.6579 24.48 26.9753 24.48 27.4059L24.48 38.8639C24.48 41.6973 23.9133 43.7939 22.78 45.1539C21.6467 46.5366 19.9013 47.2279 17.544 47.2279H6.936C4.57867 47.2279 2.83333 46.5366 1.7 45.1539C0.566667 43.7939 0 41.6973 0 38.8639ZM17.986 33.8999H6.426V37.9459C6.426 38.4899 6.562 38.8866 6.834 39.1359C7.106 39.4079 7.52533 39.5439 8.092 39.5439H16.354C16.9207 39.5439 17.3287 39.4079 17.578 39.1359C17.85 38.8866 17.986 38.4899 17.986 37.9459V33.8999ZM0 58.0431V52.7731C0 52.3425 0.0906667 52.0251 0.272 51.8211C0.476 51.6398 0.793333 51.5491 1.224 51.5491H23.256C23.6867 51.5491 23.9927 51.6398 24.174 51.8211C24.378 52.0251 24.48 52.3425 24.48 52.7731L24.48 58.0431C24.48 58.4738 24.378 58.7798 24.174 58.9611C23.9927 59.1651 23.6867 59.2671 23.256 59.2671H15.878V64.9451H23.256C23.6867 64.9451 23.9927 65.0358 24.174 65.2171C24.378 65.4211 24.48 65.7385 24.48 66.1691V71.4391C24.48 71.8698 24.378 72.1758 24.174 72.3571C23.9927 72.5611 23.6867 72.6631 23.256 72.6631H1.224C0.793333 72.6631 0.476 72.5611 0.272 72.3571C0.0906667 72.1758 0 71.8698 0 71.4391V66.1691C0 65.7385 0.0906667 65.4211 0.272 65.2171C0.476 65.0358 0.793333 64.9451 1.224 64.9451H8.772V59.2671H1.224C0.793333 59.2671 0.476 59.1651 0.272 58.9611C0.0906667 58.7798 0 58.4738 0 58.0431ZM0 94.348V78.572C0 78.1413 0.0906667 77.824 0.272 77.62C0.476 77.4386 0.793333 77.348 1.224 77.348H23.256C23.6867 77.348 23.9927 77.4386 24.174 77.62C24.378 77.824 24.48 78.1413 24.48 78.572V94.348C24.48 94.7786 24.378 95.0846 24.174 95.266C23.9927 95.47 23.6867 95.572 23.256 95.572H19.278C18.8473 95.572 18.53 95.47 18.326 95.266C18.1447 95.0846 18.054 94.7786 18.054 94.348V84.964H15.436V91.594C15.436 92.0246 15.334 92.3306 15.13 92.512C14.9487 92.716 14.6427 92.818 14.212 92.818H10.574C10.1433 92.818 9.826 92.716 9.622 92.512C9.44067 92.3306 9.35 92.0246 9.35 91.594V84.964H6.426V94.348C6.426 94.7786 6.324 95.0846 6.12 95.266C5.93867 95.47 5.63267 95.572 5.202 95.572H1.224C0.793333 95.572 0.476 95.47 0.272 95.266C0.0906667 95.0846 0 94.7786 0 94.348ZM18.36 107.278H14.008V109.828C14.008 110.417 14.1553 110.814 14.45 111.018C14.7673 111.222 15.1527 111.324 15.606 111.324H16.762C17.2153 111.324 17.5893 111.222 17.884 111.018C18.2013 110.814 18.36 110.417 18.36 109.828V107.278ZM0 106.054V100.818C0 100.387 0.0906667 100.07 0.272 99.866C0.476 99.6847 0.793333 99.594 1.224 99.594H23.256C23.6867 99.594 23.9927 99.6847 24.174 99.866C24.378 100.07 24.48 100.387 24.48 100.818V112.14C24.48 114.679 23.9473 116.424 22.882 117.376C21.8393 118.351 20.4793 118.838 18.802 118.838H17.238C16.286 118.838 15.47 118.691 14.79 118.396C14.1327 118.124 13.6567 117.637 13.362 116.934C13.226 118.158 12.7273 119.144 11.866 119.892C11.0047 120.663 9.86 121.048 8.432 121.048H1.224C0.793333 121.048 0.476 120.946 0.272 120.742C0.0906667 120.561 0 120.255 0 119.824V114.554C0 114.123 0.0906667 113.806 0.272 113.602C0.476 113.421 0.793333 113.33 1.224 113.33H6.426C6.92467 113.33 7.28733 113.228 7.514 113.024C7.76333 112.843 7.888 112.514 7.888 112.038V107.278H1.224C0.793333 107.278 0.476 107.176 0.272 106.972C0.0906667 106.791 0 106.485 0 106.054ZM0 141.862L0 126.086C0 125.655 0.0906667 125.338 0.272 125.134C0.476 124.952 0.793333 124.862 1.224 124.862H23.256C23.6867 124.862 23.9927 124.952 24.174 125.134C24.378 125.338 24.48 125.655 24.48 126.086V141.862C24.48 142.292 24.378 142.598 24.174 142.78C23.9927 142.984 23.6867 143.086 23.256 143.086H19.278C18.8473 143.086 18.53 142.984 18.326 142.78C18.1447 142.598 18.054 142.292 18.054 141.862V132.478H15.436V139.108C15.436 139.538 15.334 139.844 15.13 140.026C14.9487 140.23 14.6427 140.332 14.212 140.332H10.574C10.1433 140.332 9.826 140.23 9.622 140.026C9.44067 139.844 9.35 139.538 9.35 139.108V132.478H6.426V141.862C6.426 142.292 6.324 142.598 6.12 142.78C5.93867 142.984 5.63267 143.086 5.202 143.086H1.224C0.793333 143.086 0.476 142.984 0.272 142.78C0.0906667 142.598 0 142.292 0 141.862ZM0 153.432V148.332C0 147.901 0.0906667 147.584 0.272 147.38C0.476 147.198 0.793333 147.108 1.224 147.108H23.256C23.6867 147.108 23.9927 147.198 24.174 147.38C24.378 147.584 24.48 147.901 24.48 148.332L24.48 151.868C24.48 152.298 24.412 152.661 24.276 152.956C24.14 153.273 23.902 153.579 23.562 153.874L16.014 160.47H23.256C23.6867 160.47 23.9927 160.56 24.174 160.742C24.378 160.946 24.48 161.263 24.48 161.694V166.794C24.48 167.224 24.378 167.53 24.174 167.712C23.9927 167.916 23.6867 168.018 23.256 168.018H1.224C0.793333 168.018 0.476 167.916 0.272 167.712C0.0906667 167.53 0 167.224 0 166.794V161.694C0 161.263 0.0906667 160.946 0.272 160.742C0.476 160.56 0.793333 160.47 1.224 160.47H5.406L12.444 154.656H1.224C0.793333 154.656 0.476 154.554 0.272 154.35C0.0906667 154.168 0 153.862 0 153.432ZM0 184.267V178.759C0 178.329 0.0906667 178.011 0.272 177.807C0.476 177.626 0.793333 177.535 1.224 177.535H17.918V172.537C17.918 172.107 18.0087 171.789 18.19 171.585C18.394 171.404 18.7113 171.313 19.142 171.313H23.256C23.6867 171.313 23.9927 171.404 24.174 171.585C24.378 171.789 24.48 172.107 24.48 172.537V190.489C24.48 190.92 24.378 191.226 24.174 191.407C23.9927 191.611 23.6867 191.713 23.256 191.713H19.142C18.7113 191.713 18.394 191.611 18.19 191.407C18.0087 191.226 17.918 190.92 17.918 190.489V185.491H1.224C0.793333 185.491 0.476 185.389 0.272 185.185C0.0906667 185.004 0 184.698 0 184.267ZM0 206.376V195.632C0 195.201 0.0906667 194.884 0.272 194.68C0.476 194.498 0.793333 194.408 1.224 194.408H5.202C5.63267 194.408 5.93867 194.498 6.12 194.68C6.324 194.884 6.426 195.201 6.426 195.632V204.778C6.426 205.072 6.51667 205.288 6.698 205.424C6.902 205.582 7.14 205.662 7.412 205.662C7.79733 205.662 8.08067 205.582 8.262 205.424C8.44333 205.288 8.54533 205.072 8.568 204.778L9.282 199.678C9.50867 198.091 10.03 196.81 10.846 195.836C11.662 194.884 13.022 194.408 14.926 194.408H18.496C20.4227 194.408 21.896 195.031 22.916 196.278C23.9587 197.524 24.48 199.247 24.48 201.446V210.966C24.48 211.396 24.378 211.702 24.174 211.884C23.9927 212.088 23.6867 212.19 23.256 212.19H19.21C18.7793 212.19 18.462 212.088 18.258 211.884C18.0767 211.702 17.986 211.396 17.986 210.966V203.044C17.986 202.749 17.884 202.522 17.68 202.364C17.4987 202.205 17.2607 202.126 16.966 202.126C16.6713 202.126 16.422 202.205 16.218 202.364C16.014 202.522 15.9007 202.749 15.878 203.044L15.198 208.11C14.9713 209.696 14.45 210.977 13.634 211.952C12.818 212.926 11.458 213.414 9.554 213.414H5.984C4.05733 213.414 2.57267 212.779 1.53 211.51C0.51 210.263 0 208.552 0 206.376Z" fill="#DAFEA4"/>
</svg>
