<svg width="26" height="213" viewBox="0 0 26 213" fill="none" xmlns="http://www.w3.org/2000/svg">
<path d="M1 17.632V9.336C1 6.50267 1.56667 4.39467 2.7 3.012C3.83333 1.652 5.57867 0.972 7.936 0.972L18.51 0.972C20.8673 0.972 22.6127 1.652 23.746 3.012C24.902 4.39467 25.48 6.50267 25.48 9.336V17.632C25.48 18.0627 25.378 18.3687 25.174 18.55C24.9927 18.754 24.6867 18.856 24.256 18.856H20.142C19.7113 18.856 19.394 18.754 19.19 18.55C19.0087 18.3687 18.918 18.0627 18.918 17.632V10.798C18.918 10.0953 18.7707 9.574 18.476 9.234C18.204 8.894 17.7847 8.724 17.218 8.724H9.126C8.55933 8.724 8.14 8.894 7.868 9.234C7.61867 9.574 7.494 10.0953 7.494 10.798V17.632C7.494 18.0627 7.392 18.3687 7.188 18.55C7.00667 18.754 6.70067 18.856 6.27 18.856H2.224C1.79333 18.856 1.476 18.754 1.272 18.55C1.09067 18.3687 1 18.0627 1 17.632ZM7.426 43.2696C6.38333 43.2696 5.43133 43.1109 4.57 42.7936C3.73133 42.4989 3.006 41.9549 2.394 41.1616C1.80467 40.3909 1.34 39.3143 1 37.9316C0.66 36.5716 0.49 34.8376 0.49 32.7296C0.49 30.6216 0.66 28.8763 1 27.4936C1.34 26.1109 1.80467 25.0229 2.394 24.2296C3.006 23.4589 3.73133 22.9149 4.57 22.5976C5.43133 22.3029 6.38333 22.1556 7.426 22.1556L19.02 22.1556C20.0627 22.1556 21.0033 22.3029 21.842 22.5976C22.7033 22.9149 23.44 23.4589 24.052 24.2296C24.664 25.0229 25.14 26.1109 25.48 27.4936C25.82 28.8763 25.99 30.6216 25.99 32.7296C25.99 34.8376 25.82 36.5716 25.48 37.9316C25.14 39.3143 24.664 40.3909 24.052 41.1616C23.44 41.9549 22.7033 42.4989 21.842 42.7936C21.0033 43.1109 20.0627 43.2696 19.02 43.2696H7.426ZM8.65 29.8736C8.19667 29.8736 7.81133 30.0436 7.494 30.3836C7.19933 30.7236 7.052 31.5056 7.052 32.7296C7.052 33.9536 7.19933 34.7356 7.494 35.0756C7.81133 35.4156 8.19667 35.5856 8.65 35.5856H17.796C18.2267 35.5856 18.5893 35.4156 18.884 35.0756C19.2013 34.7356 19.36 33.9536 19.36 32.7296C19.36 31.5056 19.2013 30.7236 18.884 30.3836C18.5893 30.0436 18.2267 29.8736 17.796 29.8736L8.65 29.8736ZM1 53.922V48.822C1 48.3913 1.09067 48.074 1.272 47.87C1.476 47.6886 1.79333 47.598 2.224 47.598H24.256C24.6867 47.598 24.9927 47.6886 25.174 47.87C25.378 48.074 25.48 48.3913 25.48 48.822V52.358C25.48 52.7886 25.412 53.1513 25.276 53.446C25.14 53.7633 24.902 54.0693 24.562 54.364L17.014 60.96H24.256C24.6867 60.96 24.9927 61.0506 25.174 61.232C25.378 61.436 25.48 61.7533 25.48 62.184V67.284C25.48 67.7146 25.378 68.0206 25.174 68.202C24.9927 68.406 24.6867 68.508 24.256 68.508H2.224C1.79333 68.508 1.476 68.406 1.272 68.202C1.09067 68.0206 1 67.7146 1 67.284V62.184C1 61.7533 1.09067 61.436 1.272 61.232C1.476 61.0506 1.79333 60.96 2.224 60.96H6.406L13.444 55.146H2.224C1.79333 55.146 1.476 55.044 1.272 54.84C1.09067 54.6586 1 54.3526 1 53.922ZM1 79.5216V74.4216C1 73.9909 1.09067 73.6736 1.272 73.4696C1.476 73.2882 1.79333 73.1976 2.224 73.1976H24.256C24.6867 73.1976 24.9927 73.2882 25.174 73.4696C25.378 73.6736 25.48 73.9909 25.48 74.4216V77.9576C25.48 78.3882 25.412 78.7509 25.276 79.0456C25.14 79.3629 24.902 79.6689 24.562 79.9636L17.014 86.5596H24.256C24.6867 86.5596 24.9927 86.6502 25.174 86.8316C25.378 87.0356 25.48 87.3529 25.48 87.7836V92.8836C25.48 93.3142 25.378 93.6202 25.174 93.8016C24.9927 94.0056 24.6867 94.1076 24.256 94.1076H2.224C1.79333 94.1076 1.476 94.0056 1.272 93.8016C1.09067 93.6202 1 93.3142 1 92.8836V87.7836C1 87.3529 1.09067 87.0356 1.272 86.8316C1.476 86.6502 1.79333 86.5596 2.224 86.5596H6.406L13.444 80.7456H2.224C1.79333 80.7456 1.476 80.6436 1.272 80.4396C1.09067 80.2582 1 79.9522 1 79.5216ZM1 115.797V100.021C1 99.5905 1.09067 99.2732 1.272 99.0692C1.476 98.8878 1.79333 98.7972 2.224 98.7972H24.256C24.6867 98.7972 24.9927 98.8878 25.174 99.0692C25.378 99.2732 25.48 99.5905 25.48 100.021V115.797C25.48 116.228 25.378 116.534 25.174 116.715C24.9927 116.919 24.6867 117.021 24.256 117.021H20.278C19.8473 117.021 19.53 116.919 19.326 116.715C19.1447 116.534 19.054 116.228 19.054 115.797V106.413H16.436V113.043C16.436 113.474 16.334 113.78 16.13 113.961C15.9487 114.165 15.6427 114.267 15.212 114.267H11.574C11.1433 114.267 10.826 114.165 10.622 113.961C10.4407 113.78 10.35 113.474 10.35 113.043V106.413H7.426L7.426 115.797C7.426 116.228 7.324 116.534 7.12 116.715C6.93867 116.919 6.63267 117.021 6.202 117.021H2.224C1.79333 117.021 1.476 116.919 1.272 116.715C1.09067 116.534 1 116.228 1 115.797ZM2.224 128.353C1.79333 128.353 1.476 128.251 1.272 128.047C1.09067 127.866 1 127.56 1 127.129V121.961C1 121.531 1.09067 121.213 1.272 121.009C1.476 120.828 1.79333 120.737 2.224 120.737H5.862C6.90467 120.737 7.68667 120.828 8.208 121.009C8.72933 121.191 9.34133 121.531 10.044 122.029L13.75 124.783L17.456 122.029C18.1587 121.508 18.7707 121.157 19.292 120.975C19.8133 120.817 20.5953 120.737 21.638 120.737H24.256C24.6867 120.737 24.9927 120.828 25.174 121.009C25.378 121.213 25.48 121.531 25.48 121.961L25.48 127.197C25.48 127.628 25.378 127.934 25.174 128.115C24.9927 128.319 24.6867 128.421 24.256 128.421H21.91C21.6833 128.421 21.4453 128.433 21.196 128.455C20.9467 128.478 20.7087 128.569 20.482 128.727L18.34 130.223C18.1587 130.337 18.0113 130.45 17.898 130.563C17.8073 130.699 17.762 130.858 17.762 131.039V131.447C17.762 131.629 17.8073 131.776 17.898 131.889C18.0113 132.003 18.1587 132.127 18.34 132.263L20.482 133.793C20.7087 133.952 20.9467 134.043 21.196 134.065C21.4453 134.088 21.6833 134.099 21.91 134.099H24.256C24.6867 134.099 24.9927 134.19 25.174 134.371C25.378 134.575 25.48 134.893 25.48 135.323V140.491C25.48 140.922 25.378 141.228 25.174 141.409C24.9927 141.613 24.6867 141.715 24.256 141.715H21.638C20.5953 141.715 19.8133 141.625 19.292 141.443C18.7707 141.262 18.1587 140.922 17.456 140.423L13.716 137.669L10.044 140.423C9.34133 140.945 8.72933 141.285 8.208 141.443C7.68667 141.625 6.90467 141.715 5.862 141.715H2.224C1.79333 141.715 1.476 141.613 1.272 141.409C1.09067 141.228 1 140.922 1 140.491L1 135.323C1 134.893 1.09067 134.575 1.272 134.371C1.476 134.19 1.79333 134.099 2.224 134.099H5.59C5.81667 134.099 6.05467 134.088 6.304 134.065C6.55333 134.043 6.79133 133.952 7.018 133.793L9.16 132.297C9.364 132.161 9.51133 132.037 9.602 131.923C9.69267 131.81 9.738 131.663 9.738 131.481V131.005C9.738 130.824 9.69267 130.677 9.602 130.563C9.51133 130.45 9.364 130.325 9.16 130.189L7.018 128.659C6.79133 128.501 6.55333 128.41 6.304 128.387C6.05467 128.365 5.81667 128.353 5.59 128.353H2.224ZM1 146.792C1 146.361 1.09067 146.044 1.272 145.84C1.476 145.658 1.79333 145.568 2.224 145.568H6.27C6.70067 145.568 7.00667 145.658 7.188 145.84C7.392 146.044 7.494 146.361 7.494 146.792V150.158H18.918L18.918 146.792C18.918 146.361 19.0087 146.044 19.19 145.84C19.394 145.658 19.7113 145.568 20.142 145.568H24.256C24.6867 145.568 24.9927 145.658 25.174 145.84C25.378 146.044 25.48 146.361 25.48 146.792L25.48 161.276C25.48 161.706 25.378 162.012 25.174 162.194C24.9927 162.398 24.6867 162.5 24.256 162.5H20.142C19.7113 162.5 19.394 162.398 19.19 162.194C19.0087 162.012 18.918 161.706 18.918 161.276V157.978H7.494L7.494 161.276C7.494 161.706 7.392 162.012 7.188 162.194C7.00667 162.398 6.70067 162.5 6.27 162.5H2.224C1.79333 162.5 1.476 162.398 1.272 162.194C1.09067 162.012 1 161.706 1 161.276V146.792ZM7.426 187.438C6.38333 187.438 5.43133 187.279 4.57 186.962C3.73133 186.667 3.006 186.123 2.394 185.33C1.80467 184.559 1.34 183.482 1 182.1C0.66 180.74 0.49 179.006 0.49 176.898C0.49 174.79 0.66 173.044 1 171.662C1.34 170.279 1.80467 169.191 2.394 168.398C3.006 167.627 3.73133 167.083 4.57 166.766C5.43133 166.471 6.38333 166.324 7.426 166.324H19.02C20.0627 166.324 21.0033 166.471 21.842 166.766C22.7033 167.083 23.44 167.627 24.052 168.398C24.664 169.191 25.14 170.279 25.48 171.662C25.82 173.044 25.99 174.79 25.99 176.898C25.99 179.006 25.82 180.74 25.48 182.1C25.14 183.482 24.664 184.559 24.052 185.33C23.44 186.123 22.7033 186.667 21.842 186.962C21.0033 187.279 20.0627 187.438 19.02 187.438H7.426ZM8.65 174.042C8.19667 174.042 7.81133 174.212 7.494 174.552C7.19933 174.892 7.052 175.674 7.052 176.898C7.052 178.122 7.19933 178.904 7.494 179.244C7.81133 179.584 8.19667 179.754 8.65 179.754H17.796C18.2267 179.754 18.5893 179.584 18.884 179.244C19.2013 178.904 19.36 178.122 19.36 176.898C19.36 175.674 19.2013 174.892 18.884 174.552C18.5893 174.212 18.2267 174.042 17.796 174.042H8.65ZM1 198.09V192.99C1 192.559 1.09067 192.242 1.272 192.038C1.476 191.857 1.79333 191.766 2.224 191.766H24.256C24.6867 191.766 24.9927 191.857 25.174 192.038C25.378 192.242 25.48 192.559 25.48 192.99V196.526C25.48 196.957 25.412 197.319 25.276 197.614C25.14 197.931 24.902 198.237 24.562 198.532L17.014 205.128H24.256C24.6867 205.128 24.9927 205.219 25.174 205.4C25.378 205.604 25.48 205.921 25.48 206.352V211.452C25.48 211.883 25.378 212.189 25.174 212.37C24.9927 212.574 24.6867 212.676 24.256 212.676H2.224C1.79333 212.676 1.476 212.574 1.272 212.37C1.09067 212.189 1 211.883 1 211.452V206.352C1 205.921 1.09067 205.604 1.272 205.4C1.476 205.219 1.79333 205.128 2.224 205.128H6.406L13.444 199.314H2.224C1.79333 199.314 1.476 199.212 1.272 199.008C1.09067 198.827 1 198.521 1 198.09Z" fill="#DAFEA4"/>
</svg>
