<svg width="26" height="481" viewBox="0 0 26 481" fill="none" xmlns="http://www.w3.org/2000/svg">
<path d="M1 6.636V1.57C1 1.13933 1.09067 0.822 1.272 0.618C1.476 0.436667 1.79333 0.346 2.224 0.346L24.256 0.346C24.6867 0.346 24.9927 0.436667 25.174 0.618C25.378 0.822 25.48 1.13933 25.48 1.57V7.044C25.48 7.40667 25.4007 7.70133 25.242 7.928C25.0833 8.17733 24.8227 8.404 24.46 8.608L18.918 11.668C18.714 11.7813 18.5667 11.872 18.476 11.94C18.3853 12.0307 18.34 12.144 18.34 12.28V12.586C18.34 12.722 18.3853 12.824 18.476 12.892C18.5667 12.9827 18.714 13.0847 18.918 13.198L24.46 16.224C24.8227 16.428 25.0833 16.6433 25.242 16.87C25.4007 17.1193 25.48 17.4253 25.48 17.788V23.296C25.48 23.7267 25.378 24.0327 25.174 24.214C24.9927 24.418 24.6867 24.52 24.256 24.52L2.224 24.52C1.79333 24.52 1.476 24.418 1.272 24.214C1.09067 24.0327 1 23.7267 1 23.296V18.06C1 17.6293 1.09067 17.312 1.272 17.108C1.476 16.9267 1.79333 16.836 2.224 16.836L14.192 16.836L10.486 14.83C10.1007 14.626 9.81733 14.3767 9.636 14.082C9.47733 13.81 9.398 13.4587 9.398 13.028V11.668C9.398 11.2373 9.47733 10.8747 9.636 10.58C9.81733 10.308 10.1007 10.07 10.486 9.866L14.192 7.86H2.224C1.79333 7.86 1.476 7.758 1.272 7.554C1.09067 7.37267 1 7.06667 1 6.636ZM7.426 49.9395C6.38333 49.9395 5.43133 49.7808 4.57 49.4635C3.73133 49.1688 3.006 48.6248 2.394 47.8315C1.80467 47.0608 1.34 45.9842 1 44.6015C0.66 43.2415 0.49 41.5075 0.49 39.3995C0.49 37.2915 0.66 35.5462 1 34.1635C1.34 32.7808 1.80467 31.6928 2.394 30.8995C3.006 30.1288 3.73133 29.5848 4.57 29.2675C5.43133 28.9728 6.38333 28.8255 7.426 28.8255L19.02 28.8255C20.0627 28.8255 21.0033 28.9728 21.842 29.2675C22.7033 29.5848 23.44 30.1288 24.052 30.8995C24.664 31.6928 25.14 32.7808 25.48 34.1635C25.82 35.5462 25.99 37.2915 25.99 39.3995C25.99 41.5075 25.82 43.2415 25.48 44.6015C25.14 45.9842 24.664 47.0608 24.052 47.8315C23.44 48.6248 22.7033 49.1688 21.842 49.4635C21.0033 49.7808 20.0627 49.9395 19.02 49.9395H7.426ZM8.65 36.5435C8.19667 36.5435 7.81133 36.7135 7.494 37.0535C7.19933 37.3935 7.052 38.1755 7.052 39.3995C7.052 40.6235 7.19933 41.4055 7.494 41.7455C7.81133 42.0855 8.19667 42.2555 8.65 42.2555H17.796C18.2267 42.2555 18.5893 42.0855 18.884 41.7455C19.2013 41.4055 19.36 40.6235 19.36 39.3995C19.36 38.1755 19.2013 37.3935 18.884 37.0535C18.5893 36.7135 18.2267 36.5435 17.796 36.5435H8.65ZM1 66.9499V55.4919C1 55.0612 1.09067 54.7439 1.272 54.5399C1.476 54.3585 1.79333 54.2679 2.224 54.2679H24.256C24.6867 54.2679 24.9927 54.3585 25.174 54.5399C25.378 54.7439 25.48 55.0612 25.48 55.4919L25.48 66.9499C25.48 69.7832 24.9133 71.8799 23.78 73.2399C22.6467 74.6225 20.9013 75.3139 18.544 75.3139H7.936C5.57867 75.3139 3.83333 74.6225 2.7 73.2399C1.56667 71.8799 1 69.7832 1 66.9499ZM18.986 61.9859H7.426V66.0319C7.426 66.5759 7.562 66.9725 7.834 67.2219C8.106 67.4939 8.52533 67.6299 9.092 67.6299H17.354C17.9207 67.6299 18.3287 67.4939 18.578 67.2219C18.85 66.9725 18.986 66.5759 18.986 66.0319V61.9859ZM1 80.3151C1 79.8844 1.09067 79.5671 1.272 79.3631C1.476 79.1817 1.79333 79.0911 2.224 79.0911H6.27C6.70067 79.0911 7.00667 79.1817 7.188 79.3631C7.392 79.5671 7.494 79.8844 7.494 80.3151V83.6811H18.918V80.3151C18.918 79.8844 19.0087 79.5671 19.19 79.3631C19.394 79.1817 19.7113 79.0911 20.142 79.0911H24.256C24.6867 79.0911 24.9927 79.1817 25.174 79.3631C25.378 79.5671 25.48 79.8844 25.48 80.3151V94.7991C25.48 95.2297 25.378 95.5357 25.174 95.7171C24.9927 95.9211 24.6867 96.0231 24.256 96.0231H20.142C19.7113 96.0231 19.394 95.9211 19.19 95.7171C19.0087 95.5357 18.918 95.2297 18.918 94.7991V91.5011H7.494V94.7991C7.494 95.2297 7.392 95.5357 7.188 95.7171C7.00667 95.9211 6.70067 96.0231 6.27 96.0231H2.224C1.79333 96.0231 1.476 95.9211 1.272 95.7171C1.09067 95.5357 1 95.2297 1 94.7991V80.3151ZM1 106.715V101.445C1 101.014 1.09067 100.697 1.272 100.493C1.476 100.312 1.79333 100.221 2.224 100.221H24.256C24.6867 100.221 24.9927 100.312 25.174 100.493C25.378 100.697 25.48 101.014 25.48 101.445V116.609C25.48 117.04 25.378 117.346 25.174 117.527C24.9927 117.731 24.6867 117.833 24.256 117.833H20.21C19.7793 117.833 19.462 117.731 19.258 117.527C19.0767 117.346 18.986 117.04 18.986 116.609V107.939H15.45L15.45 113.855C15.45 114.286 15.348 114.592 15.144 114.773C14.9627 114.977 14.6567 115.079 14.226 115.079H10.146C9.71533 115.079 9.398 114.977 9.194 114.773C9.01267 114.592 8.922 114.286 8.922 113.855L8.922 107.939H2.224C1.79333 107.939 1.476 107.837 1.272 107.633C1.09067 107.452 1 107.146 1 106.715ZM1 121.919C1 121.488 1.09067 121.171 1.272 120.967C1.476 120.785 1.79333 120.695 2.224 120.695H6.27C6.70067 120.695 7.00667 120.785 7.188 120.967C7.392 121.171 7.494 121.488 7.494 121.919V125.285H18.918L18.918 121.919C18.918 121.488 19.0087 121.171 19.19 120.967C19.394 120.785 19.7113 120.695 20.142 120.695H24.256C24.6867 120.695 24.9927 120.785 25.174 120.967C25.378 121.171 25.48 121.488 25.48 121.919L25.48 136.403C25.48 136.833 25.378 137.139 25.174 137.321C24.9927 137.525 24.6867 137.627 24.256 137.627H20.142C19.7113 137.627 19.394 137.525 19.19 137.321C19.0087 137.139 18.918 136.833 18.918 136.403V133.105H7.494V136.403C7.494 136.833 7.392 137.139 7.188 137.321C7.00667 137.525 6.70067 137.627 6.27 137.627H2.224C1.79333 137.627 1.476 137.525 1.272 137.321C1.09067 137.139 1 136.833 1 136.403L1 121.919ZM1 158.111V149.815C1 146.981 1.56667 144.873 2.7 143.491C3.83333 142.131 5.57867 141.451 7.936 141.451H18.51C20.8673 141.451 22.6127 142.131 23.746 143.491C24.902 144.873 25.48 146.981 25.48 149.815V158.111C25.48 158.541 25.378 158.847 25.174 159.029C24.9927 159.233 24.6867 159.335 24.256 159.335H20.142C19.7113 159.335 19.394 159.233 19.19 159.029C19.0087 158.847 18.918 158.541 18.918 158.111V151.277C18.918 150.574 18.7707 150.053 18.476 149.713C18.204 149.373 17.7847 149.203 17.218 149.203H9.126C8.55933 149.203 8.14 149.373 7.868 149.713C7.61867 150.053 7.494 150.574 7.494 151.277V158.111C7.494 158.541 7.392 158.847 7.188 159.029C7.00667 159.233 6.70067 159.335 6.27 159.335H2.224C1.79333 159.335 1.476 159.233 1.272 159.029C1.09067 158.847 1 158.541 1 158.111ZM18.34 172.048L13.172 170.45V175.788L18.34 174.19C18.544 174.099 18.6913 173.997 18.782 173.884C18.8727 173.793 18.918 173.68 18.918 173.544V172.694C18.918 172.558 18.8727 172.433 18.782 172.32C18.6913 172.229 18.544 172.139 18.34 172.048ZM2.224 170.11C1.79333 170.11 1.476 170.008 1.272 169.804C1.09067 169.623 1 169.317 1 168.886V163.888C1 163.457 1.09067 163.14 1.272 162.936C1.476 162.755 1.79333 162.664 2.224 162.664H11.2C11.88 162.664 12.662 162.766 13.546 162.97C14.43 163.197 15.4613 163.537 16.64 163.99L24.358 166.948C24.7433 167.084 25.0267 167.288 25.208 167.56C25.3893 167.855 25.48 168.229 25.48 168.682V177.828C25.48 178.259 25.3893 178.61 25.208 178.882C25.0267 179.177 24.7433 179.392 24.358 179.528L16.64 182.486C15.4613 182.939 14.43 183.268 13.546 183.472C12.662 183.699 11.88 183.812 11.2 183.812H2.224C1.79333 183.812 1.476 183.71 1.272 183.506C1.09067 183.325 1 183.019 1 182.588V177.454C1 177.001 1.09067 176.661 1.272 176.434C1.476 176.23 1.79333 176.128 2.224 176.128H6.984V170.11H2.224ZM1 198.209V192.701C1 192.27 1.09067 191.953 1.272 191.749C1.476 191.567 1.79333 191.477 2.224 191.477H18.918V186.479C18.918 186.048 19.0087 185.731 19.19 185.527C19.394 185.345 19.7113 185.255 20.142 185.255H24.256C24.6867 185.255 24.9927 185.345 25.174 185.527C25.378 185.731 25.48 186.048 25.48 186.479V204.431C25.48 204.861 25.378 205.167 25.174 205.349C24.9927 205.553 24.6867 205.655 24.256 205.655H20.142C19.7113 205.655 19.394 205.553 19.19 205.349C19.0087 205.167 18.918 204.861 18.918 204.431V199.433H2.224C1.79333 199.433 1.476 199.331 1.272 199.127C1.09067 198.945 1 198.639 1 198.209ZM1 209.641C1 209.211 1.09067 208.893 1.272 208.689C1.476 208.508 1.79333 208.417 2.224 208.417H6.27C6.70067 208.417 7.00667 208.508 7.188 208.689C7.392 208.893 7.494 209.211 7.494 209.641V213.007H18.918V209.641C18.918 209.211 19.0087 208.893 19.19 208.689C19.394 208.508 19.7113 208.417 20.142 208.417H24.256C24.6867 208.417 24.9927 208.508 25.174 208.689C25.378 208.893 25.48 209.211 25.48 209.641L25.48 224.125C25.48 224.556 25.378 224.862 25.174 225.043C24.9927 225.247 24.6867 225.349 24.256 225.349H20.142C19.7113 225.349 19.394 225.247 19.19 225.043C19.0087 224.862 18.918 224.556 18.918 224.125V220.827H7.494V224.125C7.494 224.556 7.392 224.862 7.188 225.043C7.00667 225.247 6.70067 225.349 6.27 225.349H2.224C1.79333 225.349 1.476 225.247 1.272 225.043C1.09067 224.862 1 224.556 1 224.125V209.641ZM7.426 250.287C6.38333 250.287 5.43133 250.129 4.57 249.811C3.73133 249.517 3.006 248.973 2.394 248.179C1.80467 247.409 1.34 246.332 1 244.949C0.66 243.589 0.49 241.855 0.49 239.747C0.49 237.639 0.66 235.894 1 234.511C1.34 233.129 1.80467 232.041 2.394 231.247C3.006 230.477 3.73133 229.933 4.57 229.615C5.43133 229.321 6.38333 229.173 7.426 229.173H19.02C20.0627 229.173 21.0033 229.321 21.842 229.615C22.7033 229.933 23.44 230.477 24.052 231.247C24.664 232.041 25.14 233.129 25.48 234.511C25.82 235.894 25.99 237.639 25.99 239.747C25.99 241.855 25.82 243.589 25.48 244.949C25.14 246.332 24.664 247.409 24.052 248.179C23.44 248.973 22.7033 249.517 21.842 249.811C21.0033 250.129 20.0627 250.287 19.02 250.287H7.426ZM8.65 236.891C8.19667 236.891 7.81133 237.061 7.494 237.401C7.19933 237.741 7.052 238.523 7.052 239.747C7.052 240.971 7.19933 241.753 7.494 242.093C7.81133 242.433 8.19667 242.603 8.65 242.603H17.796C18.2267 242.603 18.5893 242.433 18.884 242.093C19.2013 241.753 19.36 240.971 19.36 239.747C19.36 238.523 19.2013 237.741 18.884 237.401C18.5893 237.061 18.2267 236.891 17.796 236.891H8.65ZM1 260.94V255.84C1 255.409 1.09067 255.092 1.272 254.888C1.476 254.706 1.79333 254.616 2.224 254.616H24.256C24.6867 254.616 24.9927 254.706 25.174 254.888C25.378 255.092 25.48 255.409 25.48 255.84V259.376C25.48 259.806 25.412 260.169 25.276 260.464C25.14 260.781 24.902 261.087 24.562 261.382L17.014 267.978H24.256C24.6867 267.978 24.9927 268.068 25.174 268.25C25.378 268.454 25.48 268.771 25.48 269.202V274.302C25.48 274.732 25.378 275.038 25.174 275.22C24.9927 275.424 24.6867 275.526 24.256 275.526H2.224C1.79333 275.526 1.476 275.424 1.272 275.22C1.09067 275.038 1 274.732 1 274.302V269.202C1 268.771 1.09067 268.454 1.272 268.25C1.476 268.068 1.79333 267.978 2.224 267.978H6.406L13.444 262.164H2.224C1.79333 262.164 1.476 262.062 1.272 261.858C1.09067 261.676 1 261.37 1 260.94ZM1 300.534V289.076C1 288.645 1.09067 288.328 1.272 288.124C1.476 287.943 1.79333 287.852 2.224 287.852H24.256C24.6867 287.852 24.9927 287.943 25.174 288.124C25.378 288.328 25.48 288.645 25.48 289.076V300.534C25.48 303.367 24.9133 305.464 23.78 306.824C22.6467 308.207 20.9013 308.898 18.544 308.898H7.936C5.57867 308.898 3.83333 308.207 2.7 306.824C1.56667 305.464 1 303.367 1 300.534ZM18.986 295.57H7.426L7.426 299.616C7.426 300.16 7.562 300.557 7.834 300.806C8.106 301.078 8.52533 301.214 9.092 301.214H17.354C17.9207 301.214 18.3287 301.078 18.578 300.806C18.85 300.557 18.986 300.16 18.986 299.616V295.57ZM7.426 334.061C6.38333 334.061 5.43133 333.902 4.57 333.585C3.73133 333.29 3.006 332.746 2.394 331.953C1.80467 331.182 1.34 330.117 1 328.757C0.66 327.397 0.49 325.663 0.49 323.555C0.49 321.447 0.66 319.713 1 318.353C1.34 316.993 1.80467 315.916 2.394 315.123C3.006 314.352 3.73133 313.808 4.57 313.491C5.43133 313.196 6.38333 313.049 7.426 313.049H24.256C24.6867 313.049 24.9927 313.14 25.174 313.321C25.378 313.525 25.48 313.842 25.48 314.273V319.611C25.48 320.042 25.378 320.348 25.174 320.529C24.9927 320.733 24.6867 320.835 24.256 320.835H8.752C8.29867 320.835 7.91333 321.005 7.596 321.345C7.30133 321.685 7.154 322.444 7.154 323.623C7.154 324.824 7.30133 325.595 7.596 325.935C7.91333 326.275 8.29867 326.445 8.752 326.445H24.256C24.6867 326.445 24.9927 326.536 25.174 326.717C25.378 326.921 25.48 327.238 25.48 327.669L25.48 332.837C25.48 333.268 25.378 333.574 25.174 333.755C24.9927 333.959 24.6867 334.061 24.256 334.061H7.426ZM1 352.717V347.447C1 347.016 1.09067 346.699 1.272 346.495C1.476 346.314 1.79333 346.223 2.224 346.223H24.256C24.6867 346.223 24.9927 346.314 25.174 346.495C25.378 346.699 25.48 347.016 25.48 347.447V357.851C25.48 360.934 24.868 363.042 23.644 364.175C22.42 365.308 20.822 365.875 18.85 365.875H14.498C12.526 365.875 10.928 365.308 9.704 364.175C8.48 363.042 7.868 360.934 7.868 357.851V353.941H2.224C1.79333 353.941 1.476 353.839 1.272 353.635C1.09067 353.454 1 353.148 1 352.717ZM19.122 353.873H13.988V356.933C13.988 357.59 14.158 358.021 14.498 358.225C14.838 358.429 15.2233 358.531 15.654 358.531H17.456C17.8867 358.531 18.272 358.429 18.612 358.225C18.952 358.021 19.122 357.59 19.122 356.933V353.873ZM19.36 377.083H15.008V379.633C15.008 380.222 15.1553 380.619 15.45 380.823C15.7673 381.027 16.1527 381.129 16.606 381.129H17.762C18.2153 381.129 18.5893 381.027 18.884 380.823C19.2013 380.619 19.36 380.222 19.36 379.633V377.083ZM1 375.859V370.623C1 370.192 1.09067 369.875 1.272 369.671C1.476 369.489 1.79333 369.399 2.224 369.399H24.256C24.6867 369.399 24.9927 369.489 25.174 369.671C25.378 369.875 25.48 370.192 25.48 370.623V381.945C25.48 384.483 24.9473 386.229 23.882 387.181C22.8393 388.155 21.4793 388.643 19.802 388.643H18.238C17.286 388.643 16.47 388.495 15.79 388.201C15.1327 387.929 14.6567 387.441 14.362 386.739C14.226 387.963 13.7273 388.949 12.866 389.697C12.0047 390.467 10.86 390.853 9.432 390.853H2.224C1.79333 390.853 1.476 390.751 1.272 390.547C1.09067 390.365 1 390.059 1 389.629V384.359C1 383.928 1.09067 383.611 1.272 383.407C1.476 383.225 1.79333 383.135 2.224 383.135H7.426C7.92467 383.135 8.28733 383.033 8.514 382.829C8.76333 382.647 8.888 382.319 8.888 381.843V377.083H2.224C1.79333 377.083 1.476 376.981 1.272 376.777C1.09067 376.595 1 376.289 1 375.859ZM7.426 415.24C6.38333 415.24 5.43133 415.082 4.57 414.764C3.73133 414.47 3.006 413.926 2.394 413.132C1.80467 412.362 1.34 411.285 1 409.902C0.66 408.542 0.49 406.808 0.49 404.7C0.49 402.592 0.66 400.847 1 399.464C1.34 398.082 1.80467 396.994 2.394 396.2C3.006 395.43 3.73133 394.886 4.57 394.568C5.43133 394.274 6.38333 394.126 7.426 394.126H19.02C20.0627 394.126 21.0033 394.274 21.842 394.568C22.7033 394.886 23.44 395.43 24.052 396.2C24.664 396.994 25.14 398.082 25.48 399.464C25.82 400.847 25.99 402.592 25.99 404.7C25.99 406.808 25.82 408.542 25.48 409.902C25.14 411.285 24.664 412.362 24.052 413.132C23.44 413.926 22.7033 414.47 21.842 414.764C21.0033 415.082 20.0627 415.24 19.02 415.24H7.426ZM8.65 401.844C8.19667 401.844 7.81133 402.014 7.494 402.354C7.19933 402.694 7.052 403.476 7.052 404.7C7.052 405.924 7.19933 406.706 7.494 407.046C7.81133 407.386 8.19667 407.556 8.65 407.556H17.796C18.2267 407.556 18.5893 407.386 18.884 407.046C19.2013 406.706 19.36 405.924 19.36 404.7C19.36 403.476 19.2013 402.694 18.884 402.354C18.5893 402.014 18.2267 401.844 17.796 401.844H8.65ZM1 426.063V420.793C1 420.362 1.09067 420.045 1.272 419.841C1.476 419.659 1.79333 419.569 2.224 419.569H24.256C24.6867 419.569 24.9927 419.659 25.174 419.841C25.378 420.045 25.48 420.362 25.48 420.793L25.48 435.957C25.48 436.387 25.378 436.693 25.174 436.875C24.9927 437.079 24.6867 437.181 24.256 437.181H20.21C19.7793 437.181 19.462 437.079 19.258 436.875C19.0767 436.693 18.986 436.387 18.986 435.957V427.287H15.45V433.203C15.45 433.633 15.348 433.939 15.144 434.121C14.9627 434.325 14.6567 434.427 14.226 434.427H10.146C9.71533 434.427 9.398 434.325 9.194 434.121C9.01267 433.939 8.922 433.633 8.922 433.203V427.287H2.224C1.79333 427.287 1.476 427.185 1.272 426.981C1.09067 426.799 1 426.493 1 426.063ZM1 441.266C1 440.836 1.09067 440.518 1.272 440.314C1.476 440.133 1.79333 440.042 2.224 440.042H6.27C6.70067 440.042 7.00667 440.133 7.188 440.314C7.392 440.518 7.494 440.836 7.494 441.266V444.632H18.918V441.266C18.918 440.836 19.0087 440.518 19.19 440.314C19.394 440.133 19.7113 440.042 20.142 440.042H24.256C24.6867 440.042 24.9927 440.133 25.174 440.314C25.378 440.518 25.48 440.836 25.48 441.266V455.75C25.48 456.181 25.378 456.487 25.174 456.668C24.9927 456.872 24.6867 456.974 24.256 456.974H20.142C19.7113 456.974 19.394 456.872 19.19 456.668C19.0087 456.487 18.918 456.181 18.918 455.75V452.452H7.494V455.75C7.494 456.181 7.392 456.487 7.188 456.668C7.00667 456.872 6.70067 456.974 6.27 456.974H2.224C1.79333 456.974 1.476 456.872 1.272 456.668C1.09067 456.487 1 456.181 1 455.75V441.266ZM1 479.702V462.396C1 461.966 1.09067 461.648 1.272 461.444C1.476 461.263 1.79333 461.172 2.224 461.172H24.256C24.6867 461.172 24.9927 461.263 25.174 461.444C25.378 461.648 25.48 461.966 25.48 462.396V467.666C25.48 468.097 25.378 468.403 25.174 468.584C24.9927 468.788 24.6867 468.89 24.256 468.89H7.426V473.548H12.934C13.3647 473.548 13.6707 473.639 13.852 473.82C14.056 474.024 14.158 474.342 14.158 474.772V479.702C14.158 480.133 14.056 480.439 13.852 480.62C13.6707 480.824 13.3647 480.926 12.934 480.926H2.224C1.79333 480.926 1.476 480.824 1.272 480.62C1.09067 480.439 1 480.133 1 479.702Z" fill="#DAFEA4"/>
</svg>
