<svg width="26" height="158" viewBox="0 0 26 158" fill="none" xmlns="http://www.w3.org/2000/svg">
<path d="M1 6.84V1.57C1 1.13933 1.09067 0.822 1.272 0.618C1.476 0.436667 1.79333 0.346 2.224 0.346L24.256 0.346C24.6867 0.346 24.9927 0.436667 25.174 0.618C25.378 0.822 25.48 1.13933 25.48 1.57V16.734C25.48 17.1647 25.378 17.4707 25.174 17.652C24.9927 17.856 24.6867 17.958 24.256 17.958H20.21C19.7793 17.958 19.462 17.856 19.258 17.652C19.0767 17.4707 18.986 17.1647 18.986 16.734V8.064H15.45V13.98C15.45 14.4107 15.348 14.7167 15.144 14.898C14.9627 15.102 14.6567 15.204 14.226 15.204L10.146 15.204C9.71533 15.204 9.398 15.102 9.194 14.898C9.01267 14.7167 8.922 14.4107 8.922 13.98V8.064H2.224C1.79333 8.064 1.476 7.962 1.272 7.758C1.09067 7.57667 1 7.27067 1 6.84ZM18.34 29.0423L13.172 27.4443V32.7823L18.34 31.1843C18.544 31.0936 18.6913 30.9916 18.782 30.8783C18.8727 30.7876 18.918 30.6743 18.918 30.5383V29.6883C18.918 29.5523 18.8727 29.4276 18.782 29.3143C18.6913 29.2236 18.544 29.1329 18.34 29.0423ZM2.224 27.1043C1.79333 27.1043 1.476 27.0023 1.272 26.7983C1.09067 26.6169 1 26.3109 1 25.8803V20.8823C1 20.4516 1.09067 20.1343 1.272 19.9303C1.476 19.7489 1.79333 19.6583 2.224 19.6583L11.2 19.6583C11.88 19.6583 12.662 19.7603 13.546 19.9643C14.43 20.1909 15.4613 20.5309 16.64 20.9843L24.358 23.9423C24.7433 24.0783 25.0267 24.2823 25.208 24.5543C25.3893 24.8489 25.48 25.2229 25.48 25.6763L25.48 34.8223C25.48 35.2529 25.3893 35.6043 25.208 35.8763C25.0267 36.1709 24.7433 36.3863 24.358 36.5223L16.64 39.4803C15.4613 39.9336 14.43 40.2623 13.546 40.4663C12.662 40.6929 11.88 40.8063 11.2 40.8063H2.224C1.79333 40.8063 1.476 40.7043 1.272 40.5003C1.09067 40.3189 1 40.0129 1 39.5823V34.4483C1 33.9949 1.09067 33.6549 1.272 33.4283C1.476 33.2243 1.79333 33.1223 2.224 33.1223H6.984V27.1043H2.224ZM1 61.2902V52.9942C1 50.1609 1.56667 48.0529 2.7 46.6702C3.83333 45.3102 5.57867 44.6302 7.936 44.6302H18.51C20.8673 44.6302 22.6127 45.3102 23.746 46.6702C24.902 48.0529 25.48 50.1609 25.48 52.9942L25.48 61.2902C25.48 61.7209 25.378 62.0269 25.174 62.2082C24.9927 62.4122 24.6867 62.5142 24.256 62.5142H20.142C19.7113 62.5142 19.394 62.4122 19.19 62.2082C19.0087 62.0269 18.918 61.7209 18.918 61.2902L18.918 54.4562C18.918 53.7535 18.7707 53.2322 18.476 52.8922C18.204 52.5522 17.7847 52.3822 17.218 52.3822H9.126C8.55933 52.3822 8.14 52.5522 7.868 52.8922C7.61867 53.2322 7.494 53.7535 7.494 54.4562V61.2902C7.494 61.7209 7.392 62.0269 7.188 62.2082C7.00667 62.4122 6.70067 62.5142 6.27 62.5142H2.224C1.79333 62.5142 1.476 62.4122 1.272 62.2082C1.09067 62.0269 1 61.7209 1 61.2902ZM1 77.9138V72.4058C1 71.9751 1.09067 71.6578 1.272 71.4538C1.476 71.2725 1.79333 71.1818 2.224 71.1818H18.918V66.1838C18.918 65.7531 19.0087 65.4358 19.19 65.2318C19.394 65.0505 19.7113 64.9598 20.142 64.9598H24.256C24.6867 64.9598 24.9927 65.0505 25.174 65.2318C25.378 65.4358 25.48 65.7531 25.48 66.1838V84.1358C25.48 84.5665 25.378 84.8725 25.174 85.0538C24.9927 85.2578 24.6867 85.3598 24.256 85.3598H20.142C19.7113 85.3598 19.394 85.2578 19.19 85.0538C19.0087 84.8725 18.918 84.5665 18.918 84.1358V79.1378H2.224C1.79333 79.1378 1.476 79.0358 1.272 78.8318C1.09067 78.6505 1 78.3445 1 77.9138ZM7.426 109.508C6.38333 109.508 5.43133 109.35 4.57 109.032C3.73133 108.738 3.006 108.194 2.394 107.4C1.80467 106.63 1.34 105.564 1 104.204C0.66 102.844 0.49 101.11 0.49 99.0023C0.49 96.8943 0.66 95.1603 1 93.8003C1.34 92.4403 1.80467 91.3636 2.394 90.5703C3.006 89.7996 3.73133 89.2556 4.57 88.9383C5.43133 88.6436 6.38333 88.4963 7.426 88.4963H24.256C24.6867 88.4963 24.9927 88.587 25.174 88.7683C25.378 88.9723 25.48 89.2896 25.48 89.7203V95.0583C25.48 95.489 25.378 95.795 25.174 95.9763C24.9927 96.1803 24.6867 96.2823 24.256 96.2823H8.752C8.29867 96.2823 7.91333 96.4523 7.596 96.7923C7.30133 97.1323 7.154 97.8916 7.154 99.0703C7.154 100.272 7.30133 101.042 7.596 101.382C7.91333 101.722 8.29867 101.892 8.752 101.892H24.256C24.6867 101.892 24.9927 101.983 25.174 102.164C25.378 102.368 25.48 102.686 25.48 103.116V108.284C25.48 108.715 25.378 109.021 25.174 109.202C24.9927 109.406 24.6867 109.508 24.256 109.508H7.426ZM19.36 121.718H15.008V124.268C15.008 124.857 15.1553 125.254 15.45 125.458C15.7673 125.662 16.1527 125.764 16.606 125.764H17.762C18.2153 125.764 18.5893 125.662 18.884 125.458C19.2013 125.254 19.36 124.857 19.36 124.268V121.718ZM1 120.494V115.258C1 114.827 1.09067 114.51 1.272 114.306C1.476 114.124 1.79333 114.034 2.224 114.034H24.256C24.6867 114.034 24.9927 114.124 25.174 114.306C25.378 114.51 25.48 114.827 25.48 115.258L25.48 126.58C25.48 129.118 24.9473 130.864 23.882 131.816C22.8393 132.79 21.4793 133.278 19.802 133.278H18.238C17.286 133.278 16.47 133.13 15.79 132.836C15.1327 132.564 14.6567 132.076 14.362 131.374C14.226 132.598 13.7273 133.584 12.866 134.332C12.0047 135.102 10.86 135.488 9.432 135.488H2.224C1.79333 135.488 1.476 135.386 1.272 135.182C1.09067 135 1 134.694 1 134.264V128.994C1 128.563 1.09067 128.246 1.272 128.042C1.476 127.86 1.79333 127.77 2.224 127.77H7.426C7.92467 127.77 8.28733 127.668 8.514 127.464C8.76333 127.282 8.888 126.954 8.888 126.478V121.718H2.224C1.79333 121.718 1.476 121.616 1.272 121.412C1.09067 121.23 1 120.924 1 120.494ZM1 156.301V140.525C1 140.094 1.09067 139.777 1.272 139.573C1.476 139.392 1.79333 139.301 2.224 139.301H24.256C24.6867 139.301 24.9927 139.392 25.174 139.573C25.378 139.777 25.48 140.094 25.48 140.525L25.48 156.301C25.48 156.732 25.378 157.038 25.174 157.219C24.9927 157.423 24.6867 157.525 24.256 157.525H20.278C19.8473 157.525 19.53 157.423 19.326 157.219C19.1447 157.038 19.054 156.732 19.054 156.301L19.054 146.917H16.436V153.547C16.436 153.978 16.334 154.284 16.13 154.465C15.9487 154.669 15.6427 154.771 15.212 154.771H11.574C11.1433 154.771 10.826 154.669 10.622 154.465C10.4407 154.284 10.35 153.978 10.35 153.547V146.917H7.426V156.301C7.426 156.732 7.324 157.038 7.12 157.219C6.93867 157.423 6.63267 157.525 6.202 157.525H2.224C1.79333 157.525 1.476 157.423 1.272 157.219C1.09067 157.038 1 156.732 1 156.301Z" fill="#DAFEA4"/>
</svg>
