<?xml version="1.0" encoding="iso-8859-1"?>
<!-- Generator: Adobe Illustrator 19.0.0, SVG Export Plug-In . SVG Version: 6.00 Build 0)  -->
<svg version="1.1" id="Capa_1" xmlns="http://www.w3.org/2000/svg" xmlns:xlink="http://www.w3.org/1999/xlink" x="0px" y="0px"
	 viewBox="0 0 512.009 512.009" style="enable-background:new 0 0 512.009 512.009;" xml:space="preserve" fill="#FFFFFF">
<g>
	<g>
		<g>
			<rect x="397.471" y="114.895" transform="matrix(0.8258 0.5639 -0.5639 0.8258 145.8209 -210.3607)" width="32" height="32"/>
			<rect x="344.613" y="78.744" transform="matrix(0.8258 0.5639 -0.5639 0.8258 116.2299 -186.8497)" width="32" height="32"/>
			<path d="M491.563,164.83c-0.167-0.116-0.334-0.232-0.502-0.346v-0.032l-28.928-19.76l-18.048,26.432l28.928,19.744
				c4.349,2.962,6.963,7.874,6.992,13.136c-0.005,3.211-0.993,6.344-2.832,8.976c-5.326,7.179-15.312,8.986-22.816,4.128
				L256.005,81.669l-198.4,135.456c-7.489,4.871-17.475,3.077-22.8-4.096c-1.838-2.649-2.816-5.8-2.8-9.024
				c0.018-5.273,2.634-10.199,6.992-13.168l217.008-148.16l56,38.208l18.032-26.416L256.005,4.005L20.949,164.453
				c-21.832,14.819-27.517,44.53-12.698,66.362c0.114,0.168,0.229,0.336,0.346,0.502c9.185,12.604,23.813,20.093,39.408,20.176
				v256.512h416v-256c15.709-0.084,30.401-7.785,39.408-20.656C518.509,209.708,513.204,179.927,491.563,164.83z M208.005,476.005
				h-64v-112h64V476.005z M432.005,476.005h-192v-144h-128v144h-32V240.612l176-120.192l176,120.192V476.005z"/>
			<path d="M288.005,444.005h112v-112h-112V444.005z M320.005,364.005h48v48h-48V364.005z"/>
			<path d="M192.005,236.005c0,35.346,28.654,64,64,64c35.346,0,64-28.654,64-64c0-35.346-28.654-64-64-64
				C220.659,172.005,192.005,200.658,192.005,236.005z M288.005,236.005c0,17.673-14.327,32-32,32c-17.673,0-32-14.327-32-32
				s14.327-32,32-32C273.678,204.005,288.005,218.331,288.005,236.005z"/>
		</g>
	</g>
</g>
<g>
</g>
<g>
</g>
<g>
</g>
<g>
</g>
<g>
</g>
<g>
</g>
<g>
</g>
<g>
</g>
<g>
</g>
<g>
</g>
<g>
</g>
<g>
</g>
<g>
</g>
<g>
</g>
<g>
</g>
</svg>
