<svg width="37" height="395" viewBox="0 0 37 395" fill="none" xmlns="http://www.w3.org/2000/svg">
<path d="M0 28.314V2.355C0 1.709 0.136 1.233 0.408 0.927C0.714 0.655 1.19 0.519 1.836 0.519L34.884 0.519C35.53 0.519 35.989 0.655 36.261 0.927C36.567 1.233 36.72 1.709 36.72 2.355V10.26C36.72 10.906 36.567 11.365 36.261 11.637C35.989 11.943 35.53 12.096 34.884 12.096L9.639 12.096V19.083H17.901C18.547 19.083 19.006 19.219 19.278 19.491C19.584 19.797 19.737 20.273 19.737 20.919V28.314C19.737 28.96 19.584 29.419 19.278 29.691C19.006 29.997 18.547 30.15 17.901 30.15L1.836 30.15C1.19 30.15 0.714 29.997 0.408 29.691C0.136 29.419 0 28.96 0 28.314ZM0 61.4799L0 37.8159C0 37.1699 0.136 36.6939 0.408 36.3879C0.714 36.1159 1.19 35.9799 1.836 35.9799L34.884 35.9799C35.53 35.9799 35.989 36.1159 36.261 36.3879C36.567 36.6939 36.72 37.1699 36.72 37.8159L36.72 61.4799C36.72 62.1259 36.567 62.5849 36.261 62.8569C35.989 63.1629 35.53 63.3159 34.884 63.3159H28.917C28.271 63.3159 27.795 63.1629 27.489 62.8569C27.217 62.5849 27.081 62.1259 27.081 61.4799V47.4039H23.154V57.3489C23.154 57.9949 23.001 58.4539 22.695 58.7259C22.423 59.0319 21.964 59.1849 21.318 59.1849H15.861C15.215 59.1849 14.739 59.0319 14.433 58.7259C14.161 58.4539 14.025 57.9949 14.025 57.3489V47.4039H9.639V61.4799C9.639 62.1259 9.486 62.5849 9.18 62.8569C8.908 63.1629 8.449 63.3159 7.803 63.3159H1.836C1.19 63.3159 0.714 63.1629 0.408 62.8569C0.136 62.5849 0 62.1259 0 61.4799ZM0 86.3831V70.2671C0 69.6211 0.136 69.1451 0.408 68.8391C0.714 68.5671 1.19 68.4311 1.836 68.4311H7.803C8.449 68.4311 8.908 68.5671 9.18 68.8391C9.486 69.1451 9.639 69.6211 9.639 70.2671V83.9861C9.639 84.4281 9.775 84.7511 10.047 84.9551C10.353 85.1931 10.71 85.3121 11.118 85.3121C11.696 85.3121 12.121 85.1931 12.393 84.9551C12.665 84.7511 12.818 84.4281 12.852 83.9861L13.923 76.3361C14.263 73.9561 15.045 72.0351 16.269 70.5731C17.493 69.1451 19.533 68.4311 22.389 68.4311H27.744C30.634 68.4311 32.844 69.3661 34.374 71.2361C35.938 73.1061 36.72 75.6901 36.72 78.9881V93.2681C36.72 93.9141 36.567 94.3731 36.261 94.6451C35.989 94.9511 35.53 95.1041 34.884 95.1041H28.815C28.169 95.1041 27.693 94.9511 27.387 94.6451C27.115 94.3731 26.979 93.9141 26.979 93.2681V81.3851C26.979 80.9431 26.826 80.6031 26.52 80.3651C26.248 80.1271 25.891 80.0081 25.449 80.0081C25.007 80.0081 24.633 80.1271 24.327 80.3651C24.021 80.6031 23.851 80.9431 23.817 81.3851L22.797 88.9841C22.457 91.3641 21.675 93.2851 20.451 94.7471C19.227 96.2091 17.187 96.9401 14.331 96.9401H8.976C6.086 96.9401 3.859 95.9881 2.295 94.0841C0.765 92.2141 0 89.6471 0 86.3831ZM0 130.816V122.554C0 121.908 0.136 121.432 0.408 121.126C0.714 120.854 1.19 120.718 1.836 120.718H26.877V113.221C26.877 112.575 27.013 112.099 27.285 111.793C27.591 111.521 28.067 111.385 28.713 111.385H34.884C35.53 111.385 35.989 111.521 36.261 111.793C36.567 112.099 36.72 112.575 36.72 113.221L36.72 140.149C36.72 140.795 36.567 141.254 36.261 141.526C35.989 141.832 35.53 141.985 34.884 141.985H28.713C28.067 141.985 27.591 141.832 27.285 141.526C27.013 141.254 26.877 140.795 26.877 140.149V132.652H1.836C1.19 132.652 0.714 132.499 0.408 132.193C0.136 131.921 0 131.462 0 130.816ZM27.54 158.471H21.012V162.296C21.012 163.18 21.233 163.775 21.675 164.081C22.151 164.387 22.729 164.54 23.409 164.54H25.143C25.823 164.54 26.384 164.387 26.826 164.081C27.302 163.775 27.54 163.18 27.54 162.296V158.471ZM0 156.635V148.781C0 148.135 0.136 147.659 0.408 147.353C0.714 147.081 1.19 146.945 1.836 146.945H34.884C35.53 146.945 35.989 147.081 36.261 147.353C36.567 147.659 36.72 148.135 36.72 148.781V165.764C36.72 169.572 35.921 172.19 34.323 173.618C32.759 175.08 30.719 175.811 28.203 175.811H25.857C24.429 175.811 23.205 175.59 22.185 175.148C21.199 174.74 20.485 174.009 20.043 172.955C19.839 174.791 19.091 176.27 17.799 177.392C16.507 178.548 14.79 179.126 12.648 179.126H1.836C1.19 179.126 0.714 178.973 0.408 178.667C0.136 178.395 0 177.936 0 177.29V169.385C0 168.739 0.136 168.263 0.408 167.957C0.714 167.685 1.19 167.549 1.836 167.549H9.639C10.387 167.549 10.931 167.396 11.271 167.09C11.645 166.818 11.832 166.325 11.832 165.611V158.471H1.836C1.19 158.471 0.714 158.318 0.408 158.012C0.136 157.74 0 157.281 0 156.635ZM0 210.346V186.682C0 186.036 0.136 185.56 0.408 185.254C0.714 184.982 1.19 184.846 1.836 184.846H34.884C35.53 184.846 35.989 184.982 36.261 185.254C36.567 185.56 36.72 186.036 36.72 186.682V210.346C36.72 210.992 36.567 211.451 36.261 211.723C35.989 212.029 35.53 212.182 34.884 212.182H28.917C28.271 212.182 27.795 212.029 27.489 211.723C27.217 211.451 27.081 210.992 27.081 210.346L27.081 196.27H23.154L23.154 206.215C23.154 206.861 23.001 207.32 22.695 207.592C22.423 207.898 21.964 208.051 21.318 208.051H15.861C15.215 208.051 14.739 207.898 14.433 207.592C14.161 207.32 14.025 206.861 14.025 206.215V196.27H9.639V210.346C9.639 210.992 9.486 211.451 9.18 211.723C8.908 212.029 8.449 212.182 7.803 212.182H1.836C1.19 212.182 0.714 212.029 0.408 211.723C0.136 211.451 0 210.992 0 210.346ZM0 227.65L0 220.051C0 219.405 0.136 218.929 0.408 218.623C0.714 218.351 1.19 218.215 1.836 218.215H34.884C35.53 218.215 35.989 218.351 36.261 218.623C36.567 218.929 36.72 219.405 36.72 220.051V228.262C36.72 228.806 36.601 229.248 36.363 229.588C36.125 229.962 35.734 230.302 35.19 230.608L26.877 235.198C26.571 235.368 26.35 235.504 26.214 235.606C26.078 235.742 26.01 235.912 26.01 236.116V236.575C26.01 236.779 26.078 236.932 26.214 237.034C26.35 237.17 26.571 237.323 26.877 237.493L35.19 242.032C35.734 242.338 36.125 242.661 36.363 243.001C36.601 243.375 36.72 243.834 36.72 244.378V252.64C36.72 253.286 36.567 253.745 36.261 254.017C35.989 254.323 35.53 254.476 34.884 254.476H1.836C1.19 254.476 0.714 254.323 0.408 254.017C0.136 253.745 0 253.286 0 252.64V244.786C0 244.14 0.136 243.664 0.408 243.358C0.714 243.086 1.19 242.95 1.836 242.95H19.788L14.229 239.941C13.651 239.635 13.226 239.261 12.954 238.819C12.716 238.411 12.597 237.884 12.597 237.238V235.198C12.597 234.552 12.716 234.008 12.954 233.566C13.226 233.158 13.651 232.801 14.229 232.495L19.788 229.486H1.836C1.19 229.486 0.714 229.333 0.408 229.027C0.136 228.755 0 228.296 0 227.65ZM0 282.916V263.332C0 262.686 0.136 262.21 0.408 261.904C0.714 261.632 1.19 261.496 1.836 261.496H34.884C35.53 261.496 35.989 261.632 36.261 261.904C36.567 262.21 36.72 262.686 36.72 263.332V279.601C36.72 282.933 36.074 285.398 34.782 286.996C33.524 288.594 31.569 289.393 28.917 289.393H26.469C25.041 289.393 23.868 289.138 22.95 288.628C22.066 288.152 21.403 287.404 20.961 286.384C20.757 288.56 20.009 290.175 18.717 291.229C17.425 292.283 15.538 292.81 13.056 292.81H8.364C5.508 292.81 3.4 291.994 2.04 290.362C0.68 288.764 0 286.282 0 282.916ZM28.05 272.971H22.542V277.306C22.542 277.952 22.712 278.428 23.052 278.734C23.392 279.074 23.902 279.244 24.582 279.244H26.01C26.69 279.244 27.2 279.074 27.54 278.734C27.88 278.428 28.05 277.952 28.05 277.306V272.971ZM14.688 272.971H8.67V279.601C8.67 280.247 8.84 280.723 9.18 281.029C9.52 281.369 10.03 281.539 10.71 281.539H12.699C13.379 281.539 13.872 281.369 14.178 281.029C14.518 280.723 14.688 280.247 14.688 279.601V272.971ZM0 326.246L0 300.287C0 299.641 0.136 299.165 0.408 298.859C0.714 298.587 1.19 298.451 1.836 298.451H34.884C35.53 298.451 35.989 298.587 36.261 298.859C36.567 299.165 36.72 299.641 36.72 300.287L36.72 308.192C36.72 308.838 36.567 309.297 36.261 309.569C35.989 309.875 35.53 310.028 34.884 310.028H9.639V317.015H17.901C18.547 317.015 19.006 317.151 19.278 317.423C19.584 317.729 19.737 318.205 19.737 318.851V326.246C19.737 326.892 19.584 327.351 19.278 327.623C19.006 327.929 18.547 328.082 17.901 328.082H1.836C1.19 328.082 0.714 327.929 0.408 327.623C0.136 327.351 0 326.892 0 326.246ZM0 359.412V335.748C0 335.102 0.136 334.626 0.408 334.32C0.714 334.048 1.19 333.912 1.836 333.912H34.884C35.53 333.912 35.989 334.048 36.261 334.32C36.567 334.626 36.72 335.102 36.72 335.748V359.412C36.72 360.058 36.567 360.517 36.261 360.789C35.989 361.095 35.53 361.248 34.884 361.248H28.917C28.271 361.248 27.795 361.095 27.489 360.789C27.217 360.517 27.081 360.058 27.081 359.412V345.336H23.154V355.281C23.154 355.927 23.001 356.386 22.695 356.658C22.423 356.964 21.964 357.117 21.318 357.117H15.861C15.215 357.117 14.739 356.964 14.433 356.658C14.161 356.386 14.025 355.927 14.025 355.281V345.336H9.639V359.412C9.639 360.058 9.486 360.517 9.18 360.789C8.908 361.095 8.449 361.248 7.803 361.248H1.836C1.19 361.248 0.714 361.095 0.408 360.789C0.136 360.517 0 360.058 0 359.412ZM0 384.315V368.199C0 367.553 0.136 367.077 0.408 366.771C0.714 366.499 1.19 366.363 1.836 366.363H7.803C8.449 366.363 8.908 366.499 9.18 366.771C9.486 367.077 9.639 367.553 9.639 368.199V381.918C9.639 382.36 9.775 382.683 10.047 382.887C10.353 383.125 10.71 383.244 11.118 383.244C11.696 383.244 12.121 383.125 12.393 382.887C12.665 382.683 12.818 382.36 12.852 381.918L13.923 374.268C14.263 371.888 15.045 369.967 16.269 368.505C17.493 367.077 19.533 366.363 22.389 366.363H27.744C30.634 366.363 32.844 367.298 34.374 369.168C35.938 371.038 36.72 373.622 36.72 376.92V391.2C36.72 391.846 36.567 392.305 36.261 392.577C35.989 392.883 35.53 393.036 34.884 393.036H28.815C28.169 393.036 27.693 392.883 27.387 392.577C27.115 392.305 26.979 391.846 26.979 391.2L26.979 379.317C26.979 378.875 26.826 378.535 26.52 378.297C26.248 378.059 25.891 377.94 25.449 377.94C25.007 377.94 24.633 378.059 24.327 378.297C24.021 378.535 23.851 378.875 23.817 379.317L22.797 386.916C22.457 389.296 21.675 391.217 20.451 392.679C19.227 394.141 17.187 394.872 14.331 394.872H8.976C6.086 394.872 3.859 393.92 2.295 392.016C0.765 390.146 0 387.579 0 384.315Z" fill="white"/>
</svg>
