<svg width="26" height="537" viewBox="0 0 26 537" fill="none" xmlns="http://www.w3.org/2000/svg">
<path d="M1 6.636V1.57C1 1.13933 1.09067 0.822 1.272 0.618C1.476 0.436667 1.79333 0.346 2.224 0.346L24.256 0.346C24.6867 0.346 24.9927 0.436667 25.174 0.618C25.378 0.822 25.48 1.13933 25.48 1.57V7.044C25.48 7.40667 25.4007 7.70133 25.242 7.928C25.0833 8.17733 24.8227 8.404 24.46 8.608L18.918 11.668C18.714 11.7813 18.5667 11.872 18.476 11.94C18.3853 12.0307 18.34 12.144 18.34 12.28V12.586C18.34 12.722 18.3853 12.824 18.476 12.892C18.5667 12.9827 18.714 13.0847 18.918 13.198L24.46 16.224C24.8227 16.428 25.0833 16.6433 25.242 16.87C25.4007 17.1193 25.48 17.4253 25.48 17.788V23.296C25.48 23.7267 25.378 24.0327 25.174 24.214C24.9927 24.418 24.6867 24.52 24.256 24.52L2.224 24.52C1.79333 24.52 1.476 24.418 1.272 24.214C1.09067 24.0327 1 23.7267 1 23.296V18.06C1 17.6293 1.09067 17.312 1.272 17.108C1.476 16.9267 1.79333 16.836 2.224 16.836L14.192 16.836L10.486 14.83C10.1007 14.626 9.81733 14.3767 9.636 14.082C9.47733 13.81 9.398 13.4587 9.398 13.028V11.668C9.398 11.2373 9.47733 10.8747 9.636 10.58C9.81733 10.308 10.1007 10.07 10.486 9.866L14.192 7.86H2.224C1.79333 7.86 1.476 7.758 1.272 7.554C1.09067 7.37267 1 7.06667 1 6.636ZM7.426 49.9395C6.38333 49.9395 5.43133 49.7808 4.57 49.4635C3.73133 49.1688 3.006 48.6248 2.394 47.8315C1.80467 47.0608 1.34 45.9842 1 44.6015C0.66 43.2415 0.49 41.5075 0.49 39.3995C0.49 37.2915 0.66 35.5462 1 34.1635C1.34 32.7808 1.80467 31.6928 2.394 30.8995C3.006 30.1288 3.73133 29.5848 4.57 29.2675C5.43133 28.9728 6.38333 28.8255 7.426 28.8255L19.02 28.8255C20.0627 28.8255 21.0033 28.9728 21.842 29.2675C22.7033 29.5848 23.44 30.1288 24.052 30.8995C24.664 31.6928 25.14 32.7808 25.48 34.1635C25.82 35.5462 25.99 37.2915 25.99 39.3995C25.99 41.5075 25.82 43.2415 25.48 44.6015C25.14 45.9842 24.664 47.0608 24.052 47.8315C23.44 48.6248 22.7033 49.1688 21.842 49.4635C21.0033 49.7808 20.0627 49.9395 19.02 49.9395H7.426ZM8.65 36.5435C8.19667 36.5435 7.81133 36.7135 7.494 37.0535C7.19933 37.3935 7.052 38.1755 7.052 39.3995C7.052 40.6235 7.19933 41.4055 7.494 41.7455C7.81133 42.0855 8.19667 42.2555 8.65 42.2555H17.796C18.2267 42.2555 18.5893 42.0855 18.884 41.7455C19.2013 41.4055 19.36 40.6235 19.36 39.3995C19.36 38.1755 19.2013 37.3935 18.884 37.0535C18.5893 36.7135 18.2267 36.5435 17.796 36.5435H8.65ZM1 66.9499V55.4919C1 55.0612 1.09067 54.7439 1.272 54.5399C1.476 54.3585 1.79333 54.2679 2.224 54.2679H24.256C24.6867 54.2679 24.9927 54.3585 25.174 54.5399C25.378 54.7439 25.48 55.0612 25.48 55.4919L25.48 66.9499C25.48 69.7832 24.9133 71.8799 23.78 73.2399C22.6467 74.6225 20.9013 75.3139 18.544 75.3139H7.936C5.57867 75.3139 3.83333 74.6225 2.7 73.2399C1.56667 71.8799 1 69.7832 1 66.9499ZM18.986 61.9859H7.426V66.0319C7.426 66.5759 7.562 66.9725 7.834 67.2219C8.106 67.4939 8.52533 67.6299 9.092 67.6299H17.354C17.9207 67.6299 18.3287 67.4939 18.578 67.2219C18.85 66.9725 18.986 66.5759 18.986 66.0319V61.9859ZM1 80.3151C1 79.8844 1.09067 79.5671 1.272 79.3631C1.476 79.1817 1.79333 79.0911 2.224 79.0911H6.27C6.70067 79.0911 7.00667 79.1817 7.188 79.3631C7.392 79.5671 7.494 79.8844 7.494 80.3151V83.6811H18.918V80.3151C18.918 79.8844 19.0087 79.5671 19.19 79.3631C19.394 79.1817 19.7113 79.0911 20.142 79.0911H24.256C24.6867 79.0911 24.9927 79.1817 25.174 79.3631C25.378 79.5671 25.48 79.8844 25.48 80.3151V94.7991C25.48 95.2297 25.378 95.5357 25.174 95.7171C24.9927 95.9211 24.6867 96.0231 24.256 96.0231H20.142C19.7113 96.0231 19.394 95.9211 19.19 95.7171C19.0087 95.5357 18.918 95.2297 18.918 94.7991V91.5011H7.494V94.7991C7.494 95.2297 7.392 95.5357 7.188 95.7171C7.00667 95.9211 6.70067 96.0231 6.27 96.0231H2.224C1.79333 96.0231 1.476 95.9211 1.272 95.7171C1.09067 95.5357 1 95.2297 1 94.7991V80.3151ZM1 106.715V101.445C1 101.014 1.09067 100.697 1.272 100.493C1.476 100.312 1.79333 100.221 2.224 100.221H24.256C24.6867 100.221 24.9927 100.312 25.174 100.493C25.378 100.697 25.48 101.014 25.48 101.445V116.609C25.48 117.04 25.378 117.346 25.174 117.527C24.9927 117.731 24.6867 117.833 24.256 117.833H20.21C19.7793 117.833 19.462 117.731 19.258 117.527C19.0767 117.346 18.986 117.04 18.986 116.609V107.939H15.45L15.45 113.855C15.45 114.286 15.348 114.592 15.144 114.773C14.9627 114.977 14.6567 115.079 14.226 115.079H10.146C9.71533 115.079 9.398 114.977 9.194 114.773C9.01267 114.592 8.922 114.286 8.922 113.855L8.922 107.939H2.224C1.79333 107.939 1.476 107.837 1.272 107.633C1.09067 107.452 1 107.146 1 106.715ZM1 121.919C1 121.488 1.09067 121.171 1.272 120.967C1.476 120.785 1.79333 120.695 2.224 120.695H6.27C6.70067 120.695 7.00667 120.785 7.188 120.967C7.392 121.171 7.494 121.488 7.494 121.919V125.285H18.918L18.918 121.919C18.918 121.488 19.0087 121.171 19.19 120.967C19.394 120.785 19.7113 120.695 20.142 120.695H24.256C24.6867 120.695 24.9927 120.785 25.174 120.967C25.378 121.171 25.48 121.488 25.48 121.919L25.48 136.403C25.48 136.833 25.378 137.139 25.174 137.321C24.9927 137.525 24.6867 137.627 24.256 137.627H20.142C19.7113 137.627 19.394 137.525 19.19 137.321C19.0087 137.139 18.918 136.833 18.918 136.403V133.105H7.494V136.403C7.494 136.833 7.392 137.139 7.188 137.321C7.00667 137.525 6.70067 137.627 6.27 137.627H2.224C1.79333 137.627 1.476 137.525 1.272 137.321C1.09067 137.139 1 136.833 1 136.403L1 121.919ZM1 158.111V149.815C1 146.981 1.56667 144.873 2.7 143.491C3.83333 142.131 5.57867 141.451 7.936 141.451H18.51C20.8673 141.451 22.6127 142.131 23.746 143.491C24.902 144.873 25.48 146.981 25.48 149.815V158.111C25.48 158.541 25.378 158.847 25.174 159.029C24.9927 159.233 24.6867 159.335 24.256 159.335H20.142C19.7113 159.335 19.394 159.233 19.19 159.029C19.0087 158.847 18.918 158.541 18.918 158.111V151.277C18.918 150.574 18.7707 150.053 18.476 149.713C18.204 149.373 17.7847 149.203 17.218 149.203H9.126C8.55933 149.203 8.14 149.373 7.868 149.713C7.61867 150.053 7.494 150.574 7.494 151.277V158.111C7.494 158.541 7.392 158.847 7.188 159.029C7.00667 159.233 6.70067 159.335 6.27 159.335H2.224C1.79333 159.335 1.476 159.233 1.272 159.029C1.09067 158.847 1 158.541 1 158.111ZM18.34 172.048L13.172 170.45V175.788L18.34 174.19C18.544 174.099 18.6913 173.997 18.782 173.884C18.8727 173.793 18.918 173.68 18.918 173.544V172.694C18.918 172.558 18.8727 172.433 18.782 172.32C18.6913 172.229 18.544 172.139 18.34 172.048ZM2.224 170.11C1.79333 170.11 1.476 170.008 1.272 169.804C1.09067 169.623 1 169.317 1 168.886V163.888C1 163.457 1.09067 163.14 1.272 162.936C1.476 162.755 1.79333 162.664 2.224 162.664H11.2C11.88 162.664 12.662 162.766 13.546 162.97C14.43 163.197 15.4613 163.537 16.64 163.99L24.358 166.948C24.7433 167.084 25.0267 167.288 25.208 167.56C25.3893 167.855 25.48 168.229 25.48 168.682V177.828C25.48 178.259 25.3893 178.61 25.208 178.882C25.0267 179.177 24.7433 179.392 24.358 179.528L16.64 182.486C15.4613 182.939 14.43 183.268 13.546 183.472C12.662 183.699 11.88 183.812 11.2 183.812H2.224C1.79333 183.812 1.476 183.71 1.272 183.506C1.09067 183.325 1 183.019 1 182.588V177.454C1 177.001 1.09067 176.661 1.272 176.434C1.476 176.23 1.79333 176.128 2.224 176.128H6.984V170.11H2.224ZM1 198.209V192.701C1 192.27 1.09067 191.953 1.272 191.749C1.476 191.567 1.79333 191.477 2.224 191.477H18.918V186.479C18.918 186.048 19.0087 185.731 19.19 185.527C19.394 185.345 19.7113 185.255 20.142 185.255H24.256C24.6867 185.255 24.9927 185.345 25.174 185.527C25.378 185.731 25.48 186.048 25.48 186.479V204.431C25.48 204.861 25.378 205.167 25.174 205.349C24.9927 205.553 24.6867 205.655 24.256 205.655H20.142C19.7113 205.655 19.394 205.553 19.19 205.349C19.0087 205.167 18.918 204.861 18.918 204.431V199.433H2.224C1.79333 199.433 1.476 199.331 1.272 199.127C1.09067 198.945 1 198.639 1 198.209ZM1 209.641C1 209.211 1.09067 208.893 1.272 208.689C1.476 208.508 1.79333 208.417 2.224 208.417H6.27C6.70067 208.417 7.00667 208.508 7.188 208.689C7.392 208.893 7.494 209.211 7.494 209.641V213.007H18.918V209.641C18.918 209.211 19.0087 208.893 19.19 208.689C19.394 208.508 19.7113 208.417 20.142 208.417H24.256C24.6867 208.417 24.9927 208.508 25.174 208.689C25.378 208.893 25.48 209.211 25.48 209.641L25.48 224.125C25.48 224.556 25.378 224.862 25.174 225.043C24.9927 225.247 24.6867 225.349 24.256 225.349H20.142C19.7113 225.349 19.394 225.247 19.19 225.043C19.0087 224.862 18.918 224.556 18.918 224.125V220.827H7.494V224.125C7.494 224.556 7.392 224.862 7.188 225.043C7.00667 225.247 6.70067 225.349 6.27 225.349H2.224C1.79333 225.349 1.476 225.247 1.272 225.043C1.09067 224.862 1 224.556 1 224.125V209.641ZM7.426 250.287C6.38333 250.287 5.43133 250.129 4.57 249.811C3.73133 249.517 3.006 248.973 2.394 248.179C1.80467 247.409 1.34 246.332 1 244.949C0.66 243.589 0.49 241.855 0.49 239.747C0.49 237.639 0.66 235.894 1 234.511C1.34 233.129 1.80467 232.041 2.394 231.247C3.006 230.477 3.73133 229.933 4.57 229.615C5.43133 229.321 6.38333 229.173 7.426 229.173H19.02C20.0627 229.173 21.0033 229.321 21.842 229.615C22.7033 229.933 23.44 230.477 24.052 231.247C24.664 232.041 25.14 233.129 25.48 234.511C25.82 235.894 25.99 237.639 25.99 239.747C25.99 241.855 25.82 243.589 25.48 244.949C25.14 246.332 24.664 247.409 24.052 248.179C23.44 248.973 22.7033 249.517 21.842 249.811C21.0033 250.129 20.0627 250.287 19.02 250.287H7.426ZM8.65 236.891C8.19667 236.891 7.81133 237.061 7.494 237.401C7.19933 237.741 7.052 238.523 7.052 239.747C7.052 240.971 7.19933 241.753 7.494 242.093C7.81133 242.433 8.19667 242.603 8.65 242.603H17.796C18.2267 242.603 18.5893 242.433 18.884 242.093C19.2013 241.753 19.36 240.971 19.36 239.747C19.36 238.523 19.2013 237.741 18.884 237.401C18.5893 237.061 18.2267 236.891 17.796 236.891H8.65ZM1 260.94V255.84C1 255.409 1.09067 255.092 1.272 254.888C1.476 254.706 1.79333 254.616 2.224 254.616H24.256C24.6867 254.616 24.9927 254.706 25.174 254.888C25.378 255.092 25.48 255.409 25.48 255.84V259.376C25.48 259.806 25.412 260.169 25.276 260.464C25.14 260.781 24.902 261.087 24.562 261.382L17.014 267.978H24.256C24.6867 267.978 24.9927 268.068 25.174 268.25C25.378 268.454 25.48 268.771 25.48 269.202V274.302C25.48 274.732 25.378 275.038 25.174 275.22C24.9927 275.424 24.6867 275.526 24.256 275.526H2.224C1.79333 275.526 1.476 275.424 1.272 275.22C1.09067 275.038 1 274.732 1 274.302V269.202C1 268.771 1.09067 268.454 1.272 268.25C1.476 268.068 1.79333 267.978 2.224 267.978H6.406L13.444 262.164H2.224C1.79333 262.164 1.476 262.062 1.272 261.858C1.09067 261.676 1 261.37 1 260.94ZM1 294.142V289.076C1 288.645 1.09067 288.328 1.272 288.124C1.476 287.943 1.79333 287.852 2.224 287.852H24.256C24.6867 287.852 24.9927 287.943 25.174 288.124C25.378 288.328 25.48 288.645 25.48 289.076V294.55C25.48 294.913 25.4007 295.207 25.242 295.434C25.0833 295.683 24.8227 295.91 24.46 296.114L18.918 299.174C18.714 299.287 18.5667 299.378 18.476 299.446C18.3853 299.537 18.34 299.65 18.34 299.786V300.092C18.34 300.228 18.3853 300.33 18.476 300.398C18.5667 300.489 18.714 300.591 18.918 300.704L24.46 303.73C24.8227 303.934 25.0833 304.149 25.242 304.376C25.4007 304.625 25.48 304.931 25.48 305.294L25.48 310.802C25.48 311.233 25.378 311.539 25.174 311.72C24.9927 311.924 24.6867 312.026 24.256 312.026H2.224C1.79333 312.026 1.476 311.924 1.272 311.72C1.09067 311.539 1 311.233 1 310.802V305.566C1 305.135 1.09067 304.818 1.272 304.614C1.476 304.433 1.79333 304.342 2.224 304.342H14.192L10.486 302.336C10.1007 302.132 9.81733 301.883 9.636 301.588C9.47733 301.316 9.398 300.965 9.398 300.534V299.174C9.398 298.743 9.47733 298.381 9.636 298.086C9.81733 297.814 10.1007 297.576 10.486 297.372L14.192 295.366H2.224C1.79333 295.366 1.476 295.264 1.272 295.06C1.09067 294.879 1 294.573 1 294.142ZM7.426 337.445C6.38333 337.445 5.43133 337.287 4.57 336.969C3.73133 336.675 3.006 336.131 2.394 335.337C1.80467 334.567 1.34 333.49 1 332.107C0.66 330.747 0.49 329.013 0.49 326.905C0.49 324.797 0.66 323.052 1 321.669C1.34 320.287 1.80467 319.199 2.394 318.405C3.006 317.635 3.73133 317.091 4.57 316.773C5.43133 316.479 6.38333 316.331 7.426 316.331H19.02C20.0627 316.331 21.0033 316.479 21.842 316.773C22.7033 317.091 23.44 317.635 24.052 318.405C24.664 319.199 25.14 320.287 25.48 321.669C25.82 323.052 25.99 324.797 25.99 326.905C25.99 329.013 25.82 330.747 25.48 332.107C25.14 333.49 24.664 334.567 24.052 335.337C23.44 336.131 22.7033 336.675 21.842 336.969C21.0033 337.287 20.0627 337.445 19.02 337.445H7.426ZM8.65 324.049C8.19667 324.049 7.81133 324.219 7.494 324.559C7.19933 324.899 7.052 325.681 7.052 326.905C7.052 328.129 7.19933 328.911 7.494 329.251C7.81133 329.591 8.19667 329.761 8.65 329.761H17.796C18.2267 329.761 18.5893 329.591 18.884 329.251C19.2013 328.911 19.36 328.129 19.36 326.905C19.36 325.681 19.2013 324.899 18.884 324.559C18.5893 324.219 18.2267 324.049 17.796 324.049H8.65ZM1 353.168V347.66C1 347.229 1.09067 346.912 1.272 346.708C1.476 346.526 1.79333 346.436 2.224 346.436H18.918V341.438C18.918 341.007 19.0087 340.69 19.19 340.486C19.394 340.304 19.7113 340.214 20.142 340.214H24.256C24.6867 340.214 24.9927 340.304 25.174 340.486C25.378 340.69 25.48 341.007 25.48 341.438V359.39C25.48 359.82 25.378 360.126 25.174 360.308C24.9927 360.512 24.6867 360.614 24.256 360.614H20.142C19.7113 360.614 19.394 360.512 19.19 360.308C19.0087 360.126 18.918 359.82 18.918 359.39V354.392H2.224C1.79333 354.392 1.476 354.29 1.272 354.086C1.09067 353.904 1 353.598 1 353.168ZM1 383.907V372.449C1 372.018 1.09067 371.701 1.272 371.497C1.476 371.316 1.79333 371.225 2.224 371.225H24.256C24.6867 371.225 24.9927 371.316 25.174 371.497C25.378 371.701 25.48 372.018 25.48 372.449V383.907C25.48 386.74 24.9133 388.837 23.78 390.197C22.6467 391.58 20.9013 392.271 18.544 392.271H7.936C5.57867 392.271 3.83333 391.58 2.7 390.197C1.56667 388.837 1 386.74 1 383.907ZM18.986 378.943H7.426V382.989C7.426 383.533 7.562 383.93 7.834 384.179C8.106 384.451 8.52533 384.587 9.092 384.587H17.354C17.9207 384.587 18.3287 384.451 18.578 384.179C18.85 383.93 18.986 383.533 18.986 382.989V378.943ZM1 413.592L1 397.816C1 397.385 1.09067 397.068 1.272 396.864C1.476 396.683 1.79333 396.592 2.224 396.592H24.256C24.6867 396.592 24.9927 396.683 25.174 396.864C25.378 397.068 25.48 397.385 25.48 397.816L25.48 413.592C25.48 414.023 25.378 414.329 25.174 414.51C24.9927 414.714 24.6867 414.816 24.256 414.816H20.278C19.8473 414.816 19.53 414.714 19.326 414.51C19.1447 414.329 19.054 414.023 19.054 413.592V404.208H16.436V410.838C16.436 411.269 16.334 411.575 16.13 411.756C15.9487 411.96 15.6427 412.062 15.212 412.062H11.574C11.1433 412.062 10.826 411.96 10.622 411.756C10.4407 411.575 10.35 411.269 10.35 410.838V404.208H7.426V413.592C7.426 414.023 7.324 414.329 7.12 414.51C6.93867 414.714 6.63267 414.816 6.202 414.816H2.224C1.79333 414.816 1.476 414.714 1.272 414.51C1.09067 414.329 1 414.023 1 413.592ZM1 432.969V427.699C1 427.268 1.09067 426.951 1.272 426.747C1.476 426.566 1.79333 426.475 2.224 426.475H24.256C24.6867 426.475 24.9927 426.566 25.174 426.747C25.378 426.951 25.48 427.268 25.48 427.699V438.103C25.48 441.186 24.868 443.294 23.644 444.427C22.42 445.56 20.822 446.127 18.85 446.127H14.498C12.526 446.127 10.928 445.56 9.704 444.427C8.48 443.294 7.868 441.186 7.868 438.103L7.868 434.193H2.224C1.79333 434.193 1.476 434.091 1.272 433.887C1.09067 433.706 1 433.4 1 432.969ZM19.122 434.125H13.988L13.988 437.185C13.988 437.842 14.158 438.273 14.498 438.477C14.838 438.681 15.2233 438.783 15.654 438.783H17.456C17.8867 438.783 18.272 438.681 18.612 438.477C18.952 438.273 19.122 437.842 19.122 437.185V434.125ZM18.34 458.193L13.172 456.595V461.933L18.34 460.335C18.544 460.244 18.6913 460.142 18.782 460.029C18.8727 459.938 18.918 459.825 18.918 459.689V458.839C18.918 458.703 18.8727 458.578 18.782 458.465C18.6913 458.374 18.544 458.283 18.34 458.193ZM2.224 456.255C1.79333 456.255 1.476 456.153 1.272 455.949C1.09067 455.767 1 455.461 1 455.031V450.033C1 449.602 1.09067 449.285 1.272 449.081C1.476 448.899 1.79333 448.809 2.224 448.809H11.2C11.88 448.809 12.662 448.911 13.546 449.115C14.43 449.341 15.4613 449.681 16.64 450.135L24.358 453.093C24.7433 453.229 25.0267 453.433 25.208 453.705C25.3893 453.999 25.48 454.373 25.48 454.827V463.973C25.48 464.403 25.3893 464.755 25.208 465.027C25.0267 465.321 24.7433 465.537 24.358 465.673L16.64 468.631C15.4613 469.084 14.43 469.413 13.546 469.617C12.662 469.843 11.88 469.957 11.2 469.957H2.224C1.79333 469.957 1.476 469.855 1.272 469.651C1.09067 469.469 1 469.163 1 468.733V463.599C1 463.145 1.09067 462.805 1.272 462.579C1.476 462.375 1.79333 462.273 2.224 462.273H6.984V456.255H2.224ZM1 485.511V474.767C1 474.336 1.09067 474.019 1.272 473.815C1.476 473.633 1.79333 473.543 2.224 473.543H6.202C6.63267 473.543 6.93867 473.633 7.12 473.815C7.324 474.019 7.426 474.336 7.426 474.767L7.426 483.913C7.426 484.207 7.51667 484.423 7.698 484.559C7.902 484.717 8.14 484.797 8.412 484.797C8.79733 484.797 9.08067 484.717 9.262 484.559C9.44333 484.423 9.54533 484.207 9.568 483.913L10.282 478.813C10.5087 477.226 11.03 475.945 11.846 474.971C12.662 474.019 14.022 473.543 15.926 473.543H19.496C21.4227 473.543 22.896 474.166 23.916 475.413C24.9587 476.659 25.48 478.382 25.48 480.581V490.101C25.48 490.531 25.378 490.837 25.174 491.019C24.9927 491.223 24.6867 491.325 24.256 491.325H20.21C19.7793 491.325 19.462 491.223 19.258 491.019C19.0767 490.837 18.986 490.531 18.986 490.101V482.179C18.986 481.884 18.884 481.657 18.68 481.499C18.4987 481.34 18.2607 481.261 17.966 481.261C17.6713 481.261 17.422 481.34 17.218 481.499C17.014 481.657 16.9007 481.884 16.878 482.179L16.198 487.245C15.9713 488.831 15.45 490.112 14.634 491.087C13.818 492.061 12.458 492.549 10.554 492.549H6.984C5.05733 492.549 3.57267 491.914 2.53 490.645C1.51 489.398 1 487.687 1 485.511ZM1 507.458L1 496.714C1 496.283 1.09067 495.966 1.272 495.762C1.476 495.581 1.79333 495.49 2.224 495.49H6.202C6.63267 495.49 6.93867 495.581 7.12 495.762C7.324 495.966 7.426 496.283 7.426 496.714V505.86C7.426 506.155 7.51667 506.37 7.698 506.506C7.902 506.665 8.14 506.744 8.412 506.744C8.79733 506.744 9.08067 506.665 9.262 506.506C9.44333 506.37 9.54533 506.155 9.568 505.86L10.282 500.76C10.5087 499.173 11.03 497.893 11.846 496.918C12.662 495.966 14.022 495.49 15.926 495.49H19.496C21.4227 495.49 22.896 496.113 23.916 497.36C24.9587 498.607 25.48 500.329 25.48 502.528V512.048C25.48 512.479 25.378 512.785 25.174 512.966C24.9927 513.17 24.6867 513.272 24.256 513.272H20.21C19.7793 513.272 19.462 513.17 19.258 512.966C19.0767 512.785 18.986 512.479 18.986 512.048V504.126C18.986 503.831 18.884 503.605 18.68 503.446C18.4987 503.287 18.2607 503.208 17.966 503.208C17.6713 503.208 17.422 503.287 17.218 503.446C17.014 503.605 16.9007 503.831 16.878 504.126L16.198 509.192C15.9713 510.779 15.45 512.059 14.634 513.034C13.818 514.009 12.458 514.496 10.554 514.496H6.984C5.05733 514.496 3.57267 513.861 2.53 512.592C1.51 511.345 1 509.634 1 507.458ZM1 535.215V519.439C1 519.008 1.09067 518.691 1.272 518.487C1.476 518.306 1.79333 518.215 2.224 518.215H24.256C24.6867 518.215 24.9927 518.306 25.174 518.487C25.378 518.691 25.48 519.008 25.48 519.439V535.215C25.48 535.646 25.378 535.952 25.174 536.133C24.9927 536.337 24.6867 536.439 24.256 536.439H20.278C19.8473 536.439 19.53 536.337 19.326 536.133C19.1447 535.952 19.054 535.646 19.054 535.215V525.831H16.436L16.436 532.461C16.436 532.892 16.334 533.198 16.13 533.379C15.9487 533.583 15.6427 533.685 15.212 533.685H11.574C11.1433 533.685 10.826 533.583 10.622 533.379C10.4407 533.198 10.35 532.892 10.35 532.461L10.35 525.831H7.426L7.426 535.215C7.426 535.646 7.324 535.952 7.12 536.133C6.93867 536.337 6.63267 536.439 6.202 536.439H2.224C1.79333 536.439 1.476 536.337 1.272 536.133C1.09067 535.952 1 535.646 1 535.215Z" fill="#DAFEA4"/>
</svg>
