<svg width="26" height="220" viewBox="0 0 26 220" fill="none" xmlns="http://www.w3.org/2000/svg">
<path d="M1 6.636V1.57C1 1.13933 1.09067 0.822 1.272 0.618C1.476 0.436667 1.79333 0.346 2.224 0.346L24.256 0.346C24.6867 0.346 24.9927 0.436667 25.174 0.618C25.378 0.822 25.48 1.13933 25.48 1.57V7.044C25.48 7.40667 25.4007 7.70133 25.242 7.928C25.0833 8.17733 24.8227 8.404 24.46 8.608L18.918 11.668C18.714 11.7813 18.5667 11.872 18.476 11.94C18.3853 12.0307 18.34 12.144 18.34 12.28V12.586C18.34 12.722 18.3853 12.824 18.476 12.892C18.5667 12.9827 18.714 13.0847 18.918 13.198L24.46 16.224C24.8227 16.428 25.0833 16.6433 25.242 16.87C25.4007 17.1193 25.48 17.4253 25.48 17.788V23.296C25.48 23.7267 25.378 24.0327 25.174 24.214C24.9927 24.418 24.6867 24.52 24.256 24.52L2.224 24.52C1.79333 24.52 1.476 24.418 1.272 24.214C1.09067 24.0327 1 23.7267 1 23.296V18.06C1 17.6293 1.09067 17.312 1.272 17.108C1.476 16.9267 1.79333 16.836 2.224 16.836L14.192 16.836L10.486 14.83C10.1007 14.626 9.81733 14.3767 9.636 14.082C9.47733 13.81 9.398 13.4587 9.398 13.028V11.668C9.398 11.2373 9.47733 10.8747 9.636 10.58C9.81733 10.308 10.1007 10.07 10.486 9.866L14.192 7.86H2.224C1.79333 7.86 1.476 7.758 1.272 7.554C1.09067 7.37267 1 7.06667 1 6.636ZM7.426 49.9395C6.38333 49.9395 5.43133 49.7808 4.57 49.4635C3.73133 49.1688 3.006 48.6248 2.394 47.8315C1.80467 47.0608 1.34 45.9842 1 44.6015C0.66 43.2415 0.49 41.5075 0.49 39.3995C0.49 37.2915 0.66 35.5462 1 34.1635C1.34 32.7808 1.80467 31.6928 2.394 30.8995C3.006 30.1288 3.73133 29.5848 4.57 29.2675C5.43133 28.9728 6.38333 28.8255 7.426 28.8255L19.02 28.8255C20.0627 28.8255 21.0033 28.9728 21.842 29.2675C22.7033 29.5848 23.44 30.1288 24.052 30.8995C24.664 31.6928 25.14 32.7808 25.48 34.1635C25.82 35.5462 25.99 37.2915 25.99 39.3995C25.99 41.5075 25.82 43.2415 25.48 44.6015C25.14 45.9842 24.664 47.0608 24.052 47.8315C23.44 48.6248 22.7033 49.1688 21.842 49.4635C21.0033 49.7808 20.0627 49.9395 19.02 49.9395H7.426ZM8.65 36.5435C8.19667 36.5435 7.81133 36.7135 7.494 37.0535C7.19933 37.3935 7.052 38.1755 7.052 39.3995C7.052 40.6235 7.19933 41.4055 7.494 41.7455C7.81133 42.0855 8.19667 42.2555 8.65 42.2555H17.796C18.2267 42.2555 18.5893 42.0855 18.884 41.7455C19.2013 41.4055 19.36 40.6235 19.36 39.3995C19.36 38.1755 19.2013 37.3935 18.884 37.0535C18.5893 36.7135 18.2267 36.5435 17.796 36.5435H8.65ZM1 60.5919V55.4919C1 55.0612 1.09067 54.7439 1.272 54.5399C1.476 54.3585 1.79333 54.2679 2.224 54.2679H24.256C24.6867 54.2679 24.9927 54.3585 25.174 54.5399C25.378 54.7439 25.48 55.0612 25.48 55.4919L25.48 59.0279C25.48 59.4585 25.412 59.8212 25.276 60.1159C25.14 60.4332 24.902 60.7392 24.562 61.0339L17.014 67.6299H24.256C24.6867 67.6299 24.9927 67.7205 25.174 67.9019C25.378 68.1059 25.48 68.4232 25.48 68.8539V73.9539C25.48 74.3845 25.378 74.6905 25.174 74.8719C24.9927 75.0759 24.6867 75.1779 24.256 75.1779H2.224C1.79333 75.1779 1.476 75.0759 1.272 74.8719C1.09067 74.6905 1 74.3845 1 73.9539V68.8539C1 68.4232 1.09067 68.1059 1.272 67.9019C1.476 67.7205 1.79333 67.6299 2.224 67.6299H6.406L13.444 61.8159H2.224C1.79333 61.8159 1.476 61.7139 1.272 61.5099C1.09067 61.3285 1 61.0225 1 60.5919ZM1 104.504V88.7282C1 88.2975 1.09067 87.9802 1.272 87.7762C1.476 87.5949 1.79333 87.5042 2.224 87.5042H24.256C24.6867 87.5042 24.9927 87.5949 25.174 87.7762C25.378 87.9802 25.48 88.2975 25.48 88.7282V104.504C25.48 104.935 25.378 105.241 25.174 105.422C24.9927 105.626 24.6867 105.728 24.256 105.728H20.278C19.8473 105.728 19.53 105.626 19.326 105.422C19.1447 105.241 19.054 104.935 19.054 104.504V95.1202H16.436V101.75C16.436 102.181 16.334 102.487 16.13 102.668C15.9487 102.872 15.6427 102.974 15.212 102.974H11.574C11.1433 102.974 10.826 102.872 10.622 102.668C10.4407 102.487 10.35 102.181 10.35 101.75V95.1202H7.426V104.504C7.426 104.935 7.324 105.241 7.12 105.422C6.93867 105.626 6.63267 105.728 6.202 105.728H2.224C1.79333 105.728 1.476 105.626 1.272 105.422C1.09067 105.241 1 104.935 1 104.504ZM1 121.106V110.362C1 109.932 1.09067 109.614 1.272 109.41C1.476 109.229 1.79333 109.138 2.224 109.138H6.202C6.63267 109.138 6.93867 109.229 7.12 109.41C7.324 109.614 7.426 109.932 7.426 110.362L7.426 119.508C7.426 119.803 7.51667 120.018 7.698 120.154C7.902 120.313 8.14 120.392 8.412 120.392C8.79733 120.392 9.08067 120.313 9.262 120.154C9.44333 120.018 9.54533 119.803 9.568 119.508L10.282 114.408C10.5087 112.822 11.03 111.541 11.846 110.566C12.662 109.614 14.022 109.138 15.926 109.138H19.496C21.4227 109.138 22.896 109.762 23.916 111.008C24.9587 112.255 25.48 113.978 25.48 116.176L25.48 125.696C25.48 126.127 25.378 126.433 25.174 126.614C24.9927 126.818 24.6867 126.92 24.256 126.92H20.21C19.7793 126.92 19.462 126.818 19.258 126.614C19.0767 126.433 18.986 126.127 18.986 125.696L18.986 117.774C18.986 117.48 18.884 117.253 18.68 117.094C18.4987 116.936 18.2607 116.856 17.966 116.856C17.6713 116.856 17.422 116.936 17.218 117.094C17.014 117.253 16.9007 117.48 16.878 117.774L16.198 122.84C15.9713 124.427 15.45 125.708 14.634 126.682C13.818 127.657 12.458 128.144 10.554 128.144H6.984C5.05733 128.144 3.57267 127.51 2.53 126.24C1.51 124.994 1 123.282 1 121.106ZM1 138.358L1 133.088C1 132.657 1.09067 132.34 1.272 132.136C1.476 131.954 1.79333 131.864 2.224 131.864H24.256C24.6867 131.864 24.9927 131.954 25.174 132.136C25.378 132.34 25.48 132.657 25.48 133.088V143.492C25.48 146.574 24.868 148.682 23.644 149.816C22.42 150.949 20.822 151.516 18.85 151.516H14.498C12.526 151.516 10.928 150.949 9.704 149.816C8.48 148.682 7.868 146.574 7.868 143.492V139.582H2.224C1.79333 139.582 1.476 139.48 1.272 139.276C1.09067 139.094 1 138.788 1 138.358ZM19.122 139.514H13.988V142.574C13.988 143.231 14.158 143.662 14.498 143.866C14.838 144.07 15.2233 144.172 15.654 144.172H17.456C17.8867 144.172 18.272 144.07 18.612 143.866C18.952 143.662 19.122 143.231 19.122 142.574V139.514ZM18.34 163.581L13.172 161.983V167.321L18.34 165.723C18.544 165.633 18.6913 165.531 18.782 165.417C18.8727 165.327 18.918 165.213 18.918 165.077V164.227C18.918 164.091 18.8727 163.967 18.782 163.853C18.6913 163.763 18.544 163.672 18.34 163.581ZM2.224 161.643C1.79333 161.643 1.476 161.541 1.272 161.337C1.09067 161.156 1 160.85 1 160.419V155.421C1 154.991 1.09067 154.673 1.272 154.469C1.476 154.288 1.79333 154.197 2.224 154.197H11.2C11.88 154.197 12.662 154.299 13.546 154.503C14.43 154.73 15.4613 155.07 16.64 155.523L24.358 158.481C24.7433 158.617 25.0267 158.821 25.208 159.093C25.3893 159.388 25.48 159.762 25.48 160.215V169.361C25.48 169.792 25.3893 170.143 25.208 170.415C25.0267 170.71 24.7433 170.925 24.358 171.061L16.64 174.019C15.4613 174.473 14.43 174.801 13.546 175.005C12.662 175.232 11.88 175.345 11.2 175.345H2.224C1.79333 175.345 1.476 175.243 1.272 175.039C1.09067 174.858 1 174.552 1 174.121V168.987C1 168.534 1.09067 168.194 1.272 167.967C1.476 167.763 1.79333 167.661 2.224 167.661H6.984V161.643H2.224ZM1 195.829V187.533C1 184.7 1.56667 182.592 2.7 181.209C3.83333 179.849 5.57867 179.169 7.936 179.169H18.51C20.8673 179.169 22.6127 179.849 23.746 181.209C24.902 182.592 25.48 184.7 25.48 187.533V195.829C25.48 196.26 25.378 196.566 25.174 196.747C24.9927 196.951 24.6867 197.053 24.256 197.053H20.142C19.7113 197.053 19.394 196.951 19.19 196.747C19.0087 196.566 18.918 196.26 18.918 195.829V188.995C18.918 188.293 18.7707 187.771 18.476 187.431C18.204 187.091 17.7847 186.921 17.218 186.921H9.126C8.55933 186.921 8.14 187.091 7.868 187.431C7.61867 187.771 7.494 188.293 7.494 188.995V195.829C7.494 196.26 7.392 196.566 7.188 196.747C7.00667 196.951 6.70067 197.053 6.27 197.053H2.224C1.79333 197.053 1.476 196.951 1.272 196.747C1.09067 196.566 1 196.26 1 195.829ZM1 217.893V202.117C1 201.686 1.09067 201.369 1.272 201.165C1.476 200.984 1.79333 200.893 2.224 200.893H24.256C24.6867 200.893 24.9927 200.984 25.174 201.165C25.378 201.369 25.48 201.686 25.48 202.117L25.48 217.893C25.48 218.324 25.378 218.63 25.174 218.811C24.9927 219.015 24.6867 219.117 24.256 219.117H20.278C19.8473 219.117 19.53 219.015 19.326 218.811C19.1447 218.63 19.054 218.324 19.054 217.893L19.054 208.509H16.436V215.139C16.436 215.57 16.334 215.876 16.13 216.057C15.9487 216.261 15.6427 216.363 15.212 216.363H11.574C11.1433 216.363 10.826 216.261 10.622 216.057C10.4407 215.876 10.35 215.57 10.35 215.139V208.509H7.426V217.893C7.426 218.324 7.324 218.63 7.12 218.811C6.93867 219.015 6.63267 219.117 6.202 219.117H2.224C1.79333 219.117 1.476 219.015 1.272 218.811C1.09067 218.63 1 218.324 1 217.893Z" fill="#DAFEA4"/>
</svg>
