<svg width="26" height="436" viewBox="0 0 26 436" fill="none" xmlns="http://www.w3.org/2000/svg">
<path d="M7.426 22.086C6.38333 22.086 5.43133 21.9273 4.57 21.61C3.73133 21.3153 3.006 20.7713 2.394 19.978C1.80467 19.2073 1.34 18.1307 1 16.748C0.66 15.388 0.49 13.654 0.49 11.546C0.49 9.438 0.66 7.69267 1 6.31C1.34 4.92733 1.80467 3.83933 2.394 3.046C3.006 2.27533 3.73133 1.73133 4.57 1.414C5.43133 1.11933 6.38333 0.972 7.426 0.972L19.02 0.972C20.0627 0.972 21.0033 1.11933 21.842 1.414C22.7033 1.73133 23.44 2.27533 24.052 3.046C24.664 3.83933 25.14 4.92733 25.48 6.31C25.82 7.69267 25.99 9.438 25.99 11.546C25.99 13.654 25.82 15.388 25.48 16.748C25.14 18.1307 24.664 19.2073 24.052 19.978C23.44 20.7713 22.7033 21.3153 21.842 21.61C21.0033 21.9273 20.0627 22.086 19.02 22.086L7.426 22.086ZM8.65 8.69C8.19667 8.69 7.81133 8.86 7.494 9.2C7.19933 9.54 7.052 10.322 7.052 11.546C7.052 12.77 7.19933 13.552 7.494 13.892C7.81133 14.232 8.19667 14.402 8.65 14.402H17.796C18.2267 14.402 18.5893 14.232 18.884 13.892C19.2013 13.552 19.36 12.77 19.36 11.546C19.36 10.322 19.2013 9.54 18.884 9.2C18.5893 8.86 18.2267 8.69 17.796 8.69H8.65ZM7.426 47.2564C6.38333 47.2564 5.43133 47.0977 4.57 46.7804C3.73133 46.4857 3.006 45.9417 2.394 45.1484C1.80467 44.3777 1.34 43.3124 1 41.9524C0.66 40.5924 0.49 38.8584 0.49 36.7504C0.49 34.6424 0.66 32.9084 1 31.5484C1.34 30.1884 1.80467 29.1117 2.394 28.3184C3.006 27.5477 3.73133 27.0037 4.57 26.6864C5.43133 26.3917 6.38333 26.2444 7.426 26.2444L24.256 26.2444C24.6867 26.2444 24.9927 26.335 25.174 26.5164C25.378 26.7204 25.48 27.0377 25.48 27.4684V32.8064C25.48 33.237 25.378 33.543 25.174 33.7244C24.9927 33.9284 24.6867 34.0304 24.256 34.0304H8.752C8.29867 34.0304 7.91333 34.2004 7.596 34.5404C7.30133 34.8804 7.154 35.6397 7.154 36.8184C7.154 38.0197 7.30133 38.7904 7.596 39.1304C7.91333 39.4704 8.29867 39.6404 8.752 39.6404H24.256C24.6867 39.6404 24.9927 39.731 25.174 39.9124C25.378 40.1164 25.48 40.4337 25.48 40.8644V46.0324C25.48 46.463 25.378 46.769 25.174 46.9504C24.9927 47.1544 24.6867 47.2564 24.256 47.2564H7.426ZM1 66.0615V53.0055C1 52.5749 1.09067 52.2575 1.272 52.0535C1.476 51.8722 1.79333 51.7815 2.224 51.7815H24.256C24.6867 51.7815 24.9927 51.8722 25.174 52.0535C25.378 52.2575 25.48 52.5749 25.48 53.0055L25.48 63.8515C25.48 66.0729 25.0493 67.7162 24.188 68.7815C23.3493 69.8469 22.046 70.3795 20.278 70.3795H18.646C17.694 70.3795 16.912 70.2095 16.3 69.8695C15.7107 69.5522 15.2687 69.0535 14.974 68.3735C14.838 69.8242 14.3393 70.9009 13.478 71.6035C12.6167 72.3062 11.3587 72.6575 9.704 72.6575H6.576C4.672 72.6575 3.26667 72.1135 2.36 71.0255C1.45333 69.9602 1 68.3055 1 66.0615ZM19.7 59.4315H16.028V62.3215C16.028 62.7522 16.1413 63.0695 16.368 63.2735C16.5947 63.5002 16.9347 63.6135 17.388 63.6135H18.34C18.7933 63.6135 19.1333 63.5002 19.36 63.2735C19.5867 63.0695 19.7 62.7522 19.7 62.3215V59.4315ZM10.792 59.4315H6.78V63.8515C6.78 64.2822 6.89333 64.5995 7.12 64.8035C7.34667 65.0302 7.68667 65.1435 8.14 65.1435H9.466C9.91933 65.1435 10.248 65.0302 10.452 64.8035C10.6787 64.5995 10.792 64.2822 10.792 63.8515V59.4315ZM1 94.9483V77.6423C1 77.2116 1.09067 76.8943 1.272 76.6903C1.476 76.5089 1.79333 76.4183 2.224 76.4183H24.256C24.6867 76.4183 24.9927 76.5089 25.174 76.6903C25.378 76.8943 25.48 77.2116 25.48 77.6423V82.9123C25.48 83.3429 25.378 83.6489 25.174 83.8303C24.9927 84.0343 24.6867 84.1363 24.256 84.1363H7.426V88.7943H12.934C13.3647 88.7943 13.6707 88.8849 13.852 89.0663C14.056 89.2703 14.158 89.5876 14.158 90.0183V94.9483C14.158 95.3789 14.056 95.6849 13.852 95.8663C13.6707 96.0703 13.3647 96.1723 12.934 96.1723H2.224C1.79333 96.1723 1.476 96.0703 1.272 95.8663C1.09067 95.6849 1 95.3789 1 94.9483ZM1 100.739C1 100.308 1.09067 99.9909 1.272 99.7869C1.476 99.6056 1.79333 99.5149 2.224 99.5149H6.27C6.70067 99.5149 7.00667 99.6056 7.188 99.7869C7.392 99.9909 7.494 100.308 7.494 100.739V104.105H18.918V100.739C18.918 100.308 19.0087 99.9909 19.19 99.7869C19.394 99.6056 19.7113 99.5149 20.142 99.5149H24.256C24.6867 99.5149 24.9927 99.6056 25.174 99.7869C25.378 99.9909 25.48 100.308 25.48 100.739V115.223C25.48 115.654 25.378 115.96 25.174 116.141C24.9927 116.345 24.6867 116.447 24.256 116.447H20.142C19.7113 116.447 19.394 116.345 19.19 116.141C19.0087 115.96 18.918 115.654 18.918 115.223V111.925H7.494L7.494 115.223C7.494 115.654 7.392 115.96 7.188 116.141C7.00667 116.345 6.70067 116.447 6.27 116.447H2.224C1.79333 116.447 1.476 116.345 1.272 116.141C1.09067 115.96 1 115.654 1 115.223V100.739ZM1 140.964L1 129.506C1 129.075 1.09067 128.758 1.272 128.554C1.476 128.372 1.79333 128.282 2.224 128.282H24.256C24.6867 128.282 24.9927 128.372 25.174 128.554C25.378 128.758 25.48 129.075 25.48 129.506V140.964C25.48 143.797 24.9133 145.894 23.78 147.254C22.6467 148.636 20.9013 149.328 18.544 149.328H7.936C5.57867 149.328 3.83333 148.636 2.7 147.254C1.56667 145.894 1 143.797 1 140.964ZM18.986 136H7.426V140.046C7.426 140.59 7.562 140.986 7.834 141.236C8.106 141.508 8.52533 141.644 9.092 141.644H17.354C17.9207 141.644 18.3287 141.508 18.578 141.236C18.85 140.986 18.986 140.59 18.986 140.046V136ZM7.426 174.491C6.38333 174.491 5.43133 174.332 4.57 174.015C3.73133 173.72 3.006 173.176 2.394 172.383C1.80467 171.612 1.34 170.547 1 169.187C0.66 167.827 0.49 166.093 0.49 163.985C0.49 161.877 0.66 160.143 1 158.783C1.34 157.423 1.80467 156.346 2.394 155.553C3.006 154.782 3.73133 154.238 4.57 153.921C5.43133 153.626 6.38333 153.479 7.426 153.479H24.256C24.6867 153.479 24.9927 153.569 25.174 153.751C25.378 153.955 25.48 154.272 25.48 154.703V160.041C25.48 160.471 25.378 160.777 25.174 160.959C24.9927 161.163 24.6867 161.265 24.256 161.265H8.752C8.29867 161.265 7.91333 161.435 7.596 161.775C7.30133 162.115 7.154 162.874 7.154 164.053C7.154 165.254 7.30133 166.025 7.596 166.365C7.91333 166.705 8.29867 166.875 8.752 166.875H24.256C24.6867 166.875 24.9927 166.965 25.174 167.147C25.378 167.351 25.48 167.668 25.48 168.099V173.267C25.48 173.697 25.378 174.003 25.174 174.185C24.9927 174.389 24.6867 174.491 24.256 174.491H7.426ZM1 192.943V187.877C1 187.446 1.09067 187.129 1.272 186.925C1.476 186.743 1.79333 186.653 2.224 186.653H24.256C24.6867 186.653 24.9927 186.743 25.174 186.925C25.378 187.129 25.48 187.446 25.48 187.877V193.351C25.48 193.713 25.4007 194.008 25.242 194.235C25.0833 194.484 24.8227 194.711 24.46 194.915L18.918 197.975C18.714 198.088 18.5667 198.179 18.476 198.247C18.3853 198.337 18.34 198.451 18.34 198.587V198.893C18.34 199.029 18.3853 199.131 18.476 199.199C18.5667 199.289 18.714 199.391 18.918 199.505L24.46 202.531C24.8227 202.735 25.0833 202.95 25.242 203.177C25.4007 203.426 25.48 203.732 25.48 204.095V209.603C25.48 210.033 25.378 210.339 25.174 210.521C24.9927 210.725 24.6867 210.827 24.256 210.827H2.224C1.79333 210.827 1.476 210.725 1.272 210.521C1.09067 210.339 1 210.033 1 209.603V204.367C1 203.936 1.09067 203.619 1.272 203.415C1.476 203.233 1.79333 203.143 2.224 203.143H14.192L10.486 201.137C10.1007 200.933 9.81733 200.683 9.636 200.389C9.47733 200.117 9.398 199.765 9.398 199.335V197.975C9.398 197.544 9.47733 197.181 9.636 196.887C9.81733 196.615 10.1007 196.377 10.486 196.173L14.192 194.167H2.224C1.79333 194.167 1.476 194.065 1.272 193.861C1.09067 193.679 1 193.373 1 192.943ZM7.426 236.246C6.38333 236.246 5.43133 236.087 4.57 235.77C3.73133 235.475 3.006 234.931 2.394 234.138C1.80467 233.367 1.34 232.291 1 230.908C0.66 229.548 0.49 227.814 0.49 225.706C0.49 223.598 0.66 221.853 1 220.47C1.34 219.087 1.80467 217.999 2.394 217.206C3.006 216.435 3.73133 215.891 4.57 215.574C5.43133 215.279 6.38333 215.132 7.426 215.132H19.02C20.0627 215.132 21.0033 215.279 21.842 215.574C22.7033 215.891 23.44 216.435 24.052 217.206C24.664 217.999 25.14 219.087 25.48 220.47C25.82 221.853 25.99 223.598 25.99 225.706C25.99 227.814 25.82 229.548 25.48 230.908C25.14 232.291 24.664 233.367 24.052 234.138C23.44 234.931 22.7033 235.475 21.842 235.77C21.0033 236.087 20.0627 236.246 19.02 236.246H7.426ZM8.65 222.85C8.19667 222.85 7.81133 223.02 7.494 223.36C7.19933 223.7 7.052 224.482 7.052 225.706C7.052 226.93 7.19933 227.712 7.494 228.052C7.81133 228.392 8.19667 228.562 8.65 228.562H17.796C18.2267 228.562 18.5893 228.392 18.884 228.052C19.2013 227.712 19.36 226.93 19.36 225.706C19.36 224.482 19.2013 223.7 18.884 223.36C18.5893 223.02 18.2267 222.85 17.796 222.85H8.65ZM1 251.969V246.461C1 246.03 1.09067 245.713 1.272 245.509C1.476 245.327 1.79333 245.237 2.224 245.237H18.918L18.918 240.239C18.918 239.808 19.0087 239.491 19.19 239.287C19.394 239.105 19.7113 239.015 20.142 239.015H24.256C24.6867 239.015 24.9927 239.105 25.174 239.287C25.378 239.491 25.48 239.808 25.48 240.239L25.48 258.191C25.48 258.621 25.378 258.927 25.174 259.109C24.9927 259.313 24.6867 259.415 24.256 259.415H20.142C19.7113 259.415 19.394 259.313 19.19 259.109C19.0087 258.927 18.918 258.621 18.918 258.191V253.193H2.224C1.79333 253.193 1.476 253.091 1.272 252.887C1.09067 252.705 1 252.399 1 251.969ZM1 282.708V271.25C1 270.819 1.09067 270.502 1.272 270.298C1.476 270.116 1.79333 270.026 2.224 270.026H24.256C24.6867 270.026 24.9927 270.116 25.174 270.298C25.378 270.502 25.48 270.819 25.48 271.25V282.708C25.48 285.541 24.9133 287.638 23.78 288.998C22.6467 290.38 20.9013 291.072 18.544 291.072H7.936C5.57867 291.072 3.83333 290.38 2.7 288.998C1.56667 287.638 1 285.541 1 282.708ZM18.986 277.744H7.426V281.79C7.426 282.334 7.562 282.73 7.834 282.98C8.106 283.252 8.52533 283.388 9.092 283.388H17.354C17.9207 283.388 18.3287 283.252 18.578 282.98C18.85 282.73 18.986 282.334 18.986 281.79V277.744ZM1 312.393V296.617C1 296.186 1.09067 295.869 1.272 295.665C1.476 295.484 1.79333 295.393 2.224 295.393H24.256C24.6867 295.393 24.9927 295.484 25.174 295.665C25.378 295.869 25.48 296.186 25.48 296.617L25.48 312.393C25.48 312.824 25.378 313.13 25.174 313.311C24.9927 313.515 24.6867 313.617 24.256 313.617H20.278C19.8473 313.617 19.53 313.515 19.326 313.311C19.1447 313.13 19.054 312.824 19.054 312.393L19.054 303.009H16.436V309.639C16.436 310.07 16.334 310.376 16.13 310.557C15.9487 310.761 15.6427 310.863 15.212 310.863H11.574C11.1433 310.863 10.826 310.761 10.622 310.557C10.4407 310.376 10.35 310.07 10.35 309.639V303.009H7.426V312.393C7.426 312.824 7.324 313.13 7.12 313.311C6.93867 313.515 6.63267 313.617 6.202 313.617H2.224C1.79333 313.617 1.476 313.515 1.272 313.311C1.09067 313.13 1 312.824 1 312.393ZM1 331.77V326.5C1 326.069 1.09067 325.752 1.272 325.548C1.476 325.366 1.79333 325.276 2.224 325.276H24.256C24.6867 325.276 24.9927 325.366 25.174 325.548C25.378 325.752 25.48 326.069 25.48 326.5L25.48 336.904C25.48 339.986 24.868 342.094 23.644 343.228C22.42 344.361 20.822 344.928 18.85 344.928H14.498C12.526 344.928 10.928 344.361 9.704 343.228C8.48 342.094 7.868 339.986 7.868 336.904V332.994H2.224C1.79333 332.994 1.476 332.892 1.272 332.688C1.09067 332.506 1 332.2 1 331.77ZM19.122 332.926H13.988V335.986C13.988 336.643 14.158 337.074 14.498 337.278C14.838 337.482 15.2233 337.584 15.654 337.584H17.456C17.8867 337.584 18.272 337.482 18.612 337.278C18.952 337.074 19.122 336.643 19.122 335.986V332.926ZM18.34 356.993L13.172 355.395V360.733L18.34 359.135C18.544 359.045 18.6913 358.943 18.782 358.829C18.8727 358.739 18.918 358.625 18.918 358.489V357.639C18.918 357.503 18.8727 357.379 18.782 357.265C18.6913 357.175 18.544 357.084 18.34 356.993ZM2.224 355.055C1.79333 355.055 1.476 354.953 1.272 354.749C1.09067 354.568 1 354.262 1 353.831V348.833C1 348.403 1.09067 348.085 1.272 347.881C1.476 347.7 1.79333 347.609 2.224 347.609H11.2C11.88 347.609 12.662 347.711 13.546 347.915C14.43 348.142 15.4613 348.482 16.64 348.935L24.358 351.893C24.7433 352.029 25.0267 352.233 25.208 352.505C25.3893 352.8 25.48 353.174 25.48 353.627V362.773C25.48 363.204 25.3893 363.555 25.208 363.827C25.0267 364.122 24.7433 364.337 24.358 364.473L16.64 367.431C15.4613 367.885 14.43 368.213 13.546 368.417C12.662 368.644 11.88 368.757 11.2 368.757H2.224C1.79333 368.757 1.476 368.655 1.272 368.451C1.09067 368.27 1 367.964 1 367.533V362.399C1 361.946 1.09067 361.606 1.272 361.379C1.476 361.175 1.79333 361.073 2.224 361.073H6.984V355.055H2.224ZM1 384.311V373.567C1 373.137 1.09067 372.819 1.272 372.615C1.476 372.434 1.79333 372.343 2.224 372.343H6.202C6.63267 372.343 6.93867 372.434 7.12 372.615C7.324 372.819 7.426 373.137 7.426 373.567V382.713C7.426 383.008 7.51667 383.223 7.698 383.359C7.902 383.518 8.14 383.597 8.412 383.597C8.79733 383.597 9.08067 383.518 9.262 383.359C9.44333 383.223 9.54533 383.008 9.568 382.713L10.282 377.613C10.5087 376.027 11.03 374.746 11.846 373.771C12.662 372.819 14.022 372.343 15.926 372.343H19.496C21.4227 372.343 22.896 372.967 23.916 374.213C24.9587 375.46 25.48 377.183 25.48 379.381V388.901C25.48 389.332 25.378 389.638 25.174 389.819C24.9927 390.023 24.6867 390.125 24.256 390.125H20.21C19.7793 390.125 19.462 390.023 19.258 389.819C19.0767 389.638 18.986 389.332 18.986 388.901V380.979C18.986 380.685 18.884 380.458 18.68 380.299C18.4987 380.141 18.2607 380.061 17.966 380.061C17.6713 380.061 17.422 380.141 17.218 380.299C17.014 380.458 16.9007 380.685 16.878 380.979L16.198 386.045C15.9713 387.632 15.45 388.913 14.634 389.887C13.818 390.862 12.458 391.349 10.554 391.349H6.984C5.05733 391.349 3.57267 390.715 2.53 389.445C1.51 388.199 1 386.487 1 384.311ZM1 406.259V395.515C1 395.084 1.09067 394.767 1.272 394.563C1.476 394.381 1.79333 394.291 2.224 394.291H6.202C6.63267 394.291 6.93867 394.381 7.12 394.563C7.324 394.767 7.426 395.084 7.426 395.515V404.661C7.426 404.955 7.51667 405.171 7.698 405.307C7.902 405.465 8.14 405.545 8.412 405.545C8.79733 405.545 9.08067 405.465 9.262 405.307C9.44333 405.171 9.54533 404.955 9.568 404.661L10.282 399.561C10.5087 397.974 11.03 396.693 11.846 395.719C12.662 394.767 14.022 394.291 15.926 394.291H19.496C21.4227 394.291 22.896 394.914 23.916 396.161C24.9587 397.407 25.48 399.13 25.48 401.329L25.48 410.849C25.48 411.279 25.378 411.585 25.174 411.767C24.9927 411.971 24.6867 412.073 24.256 412.073H20.21C19.7793 412.073 19.462 411.971 19.258 411.767C19.0767 411.585 18.986 411.279 18.986 410.849V402.927C18.986 402.632 18.884 402.405 18.68 402.247C18.4987 402.088 18.2607 402.009 17.966 402.009C17.6713 402.009 17.422 402.088 17.218 402.247C17.014 402.405 16.9007 402.632 16.878 402.927L16.198 407.993C15.9713 409.579 15.45 410.86 14.634 411.835C13.818 412.809 12.458 413.297 10.554 413.297H6.984C5.05733 413.297 3.57267 412.662 2.53 411.393C1.51 410.146 1 408.435 1 406.259ZM1 434.016V418.24C1 417.809 1.09067 417.492 1.272 417.288C1.476 417.107 1.79333 417.016 2.224 417.016H24.256C24.6867 417.016 24.9927 417.107 25.174 417.288C25.378 417.492 25.48 417.809 25.48 418.24L25.48 434.016C25.48 434.447 25.378 434.753 25.174 434.934C24.9927 435.138 24.6867 435.24 24.256 435.24H20.278C19.8473 435.24 19.53 435.138 19.326 434.934C19.1447 434.753 19.054 434.447 19.054 434.016L19.054 424.632H16.436V431.262C16.436 431.693 16.334 431.999 16.13 432.18C15.9487 432.384 15.6427 432.486 15.212 432.486H11.574C11.1433 432.486 10.826 432.384 10.622 432.18C10.4407 431.999 10.35 431.693 10.35 431.262V424.632H7.426V434.016C7.426 434.447 7.324 434.753 7.12 434.934C6.93867 435.138 6.63267 435.24 6.202 435.24H2.224C1.79333 435.24 1.476 435.138 1.272 434.934C1.09067 434.753 1 434.447 1 434.016Z" fill="#DAFEA4"/>
</svg>
