<svg width="26" height="223" viewBox="0 0 26 223" fill="none" xmlns="http://www.w3.org/2000/svg">
<path d="M1 6.636V1.57C1 1.13933 1.09067 0.822 1.272 0.618C1.476 0.436667 1.79333 0.346 2.224 0.346L24.256 0.346C24.6867 0.346 24.9927 0.436667 25.174 0.618C25.378 0.822 25.48 1.13933 25.48 1.57V7.044C25.48 7.40667 25.4007 7.70133 25.242 7.928C25.0833 8.17733 24.8227 8.404 24.46 8.608L18.918 11.668C18.714 11.7813 18.5667 11.872 18.476 11.94C18.3853 12.0307 18.34 12.144 18.34 12.28V12.586C18.34 12.722 18.3853 12.824 18.476 12.892C18.5667 12.9827 18.714 13.0847 18.918 13.198L24.46 16.224C24.8227 16.428 25.0833 16.6433 25.242 16.87C25.4007 17.1193 25.48 17.4253 25.48 17.788V23.296C25.48 23.7267 25.378 24.0327 25.174 24.214C24.9927 24.418 24.6867 24.52 24.256 24.52L2.224 24.52C1.79333 24.52 1.476 24.418 1.272 24.214C1.09067 24.0327 1 23.7267 1 23.296V18.06C1 17.6293 1.09067 17.312 1.272 17.108C1.476 16.9267 1.79333 16.836 2.224 16.836L14.192 16.836L10.486 14.83C10.1007 14.626 9.81733 14.3767 9.636 14.082C9.47733 13.81 9.398 13.4587 9.398 13.028V11.668C9.398 11.2373 9.47733 10.8747 9.636 10.58C9.81733 10.308 10.1007 10.07 10.486 9.866L14.192 7.86H2.224C1.79333 7.86 1.476 7.758 1.272 7.554C1.09067 7.37267 1 7.06667 1 6.636ZM7.426 49.9395C6.38333 49.9395 5.43133 49.7808 4.57 49.4635C3.73133 49.1688 3.006 48.6248 2.394 47.8315C1.80467 47.0608 1.34 45.9842 1 44.6015C0.66 43.2415 0.49 41.5075 0.49 39.3995C0.49 37.2915 0.66 35.5462 1 34.1635C1.34 32.7808 1.80467 31.6928 2.394 30.8995C3.006 30.1288 3.73133 29.5848 4.57 29.2675C5.43133 28.9728 6.38333 28.8255 7.426 28.8255L19.02 28.8255C20.0627 28.8255 21.0033 28.9728 21.842 29.2675C22.7033 29.5848 23.44 30.1288 24.052 30.8995C24.664 31.6928 25.14 32.7808 25.48 34.1635C25.82 35.5462 25.99 37.2915 25.99 39.3995C25.99 41.5075 25.82 43.2415 25.48 44.6015C25.14 45.9842 24.664 47.0608 24.052 47.8315C23.44 48.6248 22.7033 49.1688 21.842 49.4635C21.0033 49.7808 20.0627 49.9395 19.02 49.9395H7.426ZM8.65 36.5435C8.19667 36.5435 7.81133 36.7135 7.494 37.0535C7.19933 37.3935 7.052 38.1755 7.052 39.3995C7.052 40.6235 7.19933 41.4055 7.494 41.7455C7.81133 42.0855 8.19667 42.2555 8.65 42.2555H17.796C18.2267 42.2555 18.5893 42.0855 18.884 41.7455C19.2013 41.4055 19.36 40.6235 19.36 39.3995C19.36 38.1755 19.2013 37.3935 18.884 37.0535C18.5893 36.7135 18.2267 36.5435 17.796 36.5435H8.65ZM1 60.5919V55.4919C1 55.0612 1.09067 54.7439 1.272 54.5399C1.476 54.3585 1.79333 54.2679 2.224 54.2679H24.256C24.6867 54.2679 24.9927 54.3585 25.174 54.5399C25.378 54.7439 25.48 55.0612 25.48 55.4919L25.48 59.0279C25.48 59.4585 25.412 59.8212 25.276 60.1159C25.14 60.4332 24.902 60.7392 24.562 61.0339L17.014 67.6299H24.256C24.6867 67.6299 24.9927 67.7205 25.174 67.9019C25.378 68.1059 25.48 68.4232 25.48 68.8539V73.9539C25.48 74.3845 25.378 74.6905 25.174 74.8719C24.9927 75.0759 24.6867 75.1779 24.256 75.1779H2.224C1.79333 75.1779 1.476 75.0759 1.272 74.8719C1.09067 74.6905 1 74.3845 1 73.9539V68.8539C1 68.4232 1.09067 68.1059 1.272 67.9019C1.476 67.7205 1.79333 67.6299 2.224 67.6299H6.406L13.444 61.8159H2.224C1.79333 61.8159 1.476 61.7139 1.272 61.5099C1.09067 61.3285 1 61.0225 1 60.5919ZM1 93.9982V88.7282C1 88.2975 1.09067 87.9802 1.272 87.7762C1.476 87.5949 1.79333 87.5042 2.224 87.5042H24.256C24.6867 87.5042 24.9927 87.5949 25.174 87.7762C25.378 87.9802 25.48 88.2975 25.48 88.7282V99.1322C25.48 102.215 24.868 104.323 23.644 105.456C22.42 106.59 20.822 107.156 18.85 107.156H14.498C12.526 107.156 10.928 106.59 9.704 105.456C8.48 104.323 7.868 102.215 7.868 99.1322V95.2222H2.224C1.79333 95.2222 1.476 95.1202 1.272 94.9162C1.09067 94.7349 1 94.4289 1 93.9982ZM19.122 95.1542H13.988V98.2142C13.988 98.8715 14.158 99.3022 14.498 99.5062C14.838 99.7102 15.2233 99.8122 15.654 99.8122H17.456C17.8867 99.8122 18.272 99.7102 18.612 99.5062C18.952 99.3022 19.122 98.8715 19.122 98.2142V95.1542ZM19.36 118.364H15.008V120.914C15.008 121.503 15.1553 121.9 15.45 122.104C15.7673 122.308 16.1527 122.41 16.606 122.41H17.762C18.2153 122.41 18.5893 122.308 18.884 122.104C19.2013 121.9 19.36 121.503 19.36 120.914V118.364ZM1 117.14V111.904C1 111.473 1.09067 111.156 1.272 110.952C1.476 110.771 1.79333 110.68 2.224 110.68H24.256C24.6867 110.68 24.9927 110.771 25.174 110.952C25.378 111.156 25.48 111.473 25.48 111.904V123.226C25.48 125.765 24.9473 127.51 23.882 128.462C22.8393 129.437 21.4793 129.924 19.802 129.924H18.238C17.286 129.924 16.47 129.777 15.79 129.482C15.1327 129.21 14.6567 128.723 14.362 128.02C14.226 129.244 13.7273 130.23 12.866 130.978C12.0047 131.749 10.86 132.134 9.432 132.134H2.224C1.79333 132.134 1.476 132.032 1.272 131.828C1.09067 131.647 1 131.341 1 130.91V125.64C1 125.209 1.09067 124.892 1.272 124.688C1.476 124.507 1.79333 124.416 2.224 124.416H7.426C7.92467 124.416 8.28733 124.314 8.514 124.11C8.76333 123.929 8.888 123.6 8.888 123.124V118.364H2.224C1.79333 118.364 1.476 118.262 1.272 118.058C1.09067 117.877 1 117.571 1 117.14ZM7.426 156.522C6.38333 156.522 5.43133 156.363 4.57 156.046C3.73133 155.751 3.006 155.207 2.394 154.414C1.80467 153.643 1.34 152.566 1 151.184C0.66 149.824 0.49 148.09 0.49 145.982C0.49 143.874 0.66 142.128 1 140.746C1.34 139.363 1.80467 138.275 2.394 137.482C3.006 136.711 3.73133 136.167 4.57 135.85C5.43133 135.555 6.38333 135.408 7.426 135.408H19.02C20.0627 135.408 21.0033 135.555 21.842 135.85C22.7033 136.167 23.44 136.711 24.052 137.482C24.664 138.275 25.14 139.363 25.48 140.746C25.82 142.128 25.99 143.874 25.99 145.982C25.99 148.09 25.82 149.824 25.48 151.184C25.14 152.566 24.664 153.643 24.052 154.414C23.44 155.207 22.7033 155.751 21.842 156.046C21.0033 156.363 20.0627 156.522 19.02 156.522H7.426ZM8.65 143.126C8.19667 143.126 7.81133 143.296 7.494 143.636C7.19933 143.976 7.052 144.758 7.052 145.982C7.052 147.206 7.19933 147.988 7.494 148.328C7.81133 148.668 8.19667 148.838 8.65 148.838H17.796C18.2267 148.838 18.5893 148.668 18.884 148.328C19.2013 147.988 19.36 147.206 19.36 145.982C19.36 144.758 19.2013 143.976 18.884 143.636C18.5893 143.296 18.2267 143.126 17.796 143.126H8.65ZM1 167.344V162.074C1 161.643 1.09067 161.326 1.272 161.122C1.476 160.941 1.79333 160.85 2.224 160.85H24.256C24.6867 160.85 24.9927 160.941 25.174 161.122C25.378 161.326 25.48 161.643 25.48 162.074V177.238C25.48 177.669 25.378 177.975 25.174 178.156C24.9927 178.36 24.6867 178.462 24.256 178.462H20.21C19.7793 178.462 19.462 178.36 19.258 178.156C19.0767 177.975 18.986 177.669 18.986 177.238V168.568H15.45V174.484C15.45 174.915 15.348 175.221 15.144 175.402C14.9627 175.606 14.6567 175.708 14.226 175.708H10.146C9.71533 175.708 9.398 175.606 9.194 175.402C9.01267 175.221 8.922 174.915 8.922 174.484V168.568H2.224C1.79333 168.568 1.476 168.466 1.272 168.262C1.09067 168.081 1 167.775 1 167.344ZM1 182.547C1 182.117 1.09067 181.799 1.272 181.595C1.476 181.414 1.79333 181.323 2.224 181.323H6.27C6.70067 181.323 7.00667 181.414 7.188 181.595C7.392 181.799 7.494 182.117 7.494 182.547V185.913H18.918V182.547C18.918 182.117 19.0087 181.799 19.19 181.595C19.394 181.414 19.7113 181.323 20.142 181.323H24.256C24.6867 181.323 24.9927 181.414 25.174 181.595C25.378 181.799 25.48 182.117 25.48 182.547V197.031C25.48 197.462 25.378 197.768 25.174 197.949C24.9927 198.153 24.6867 198.255 24.256 198.255H20.142C19.7113 198.255 19.394 198.153 19.19 197.949C19.0087 197.768 18.918 197.462 18.918 197.031V193.733H7.494V197.031C7.494 197.462 7.392 197.768 7.188 197.949C7.00667 198.153 6.70067 198.255 6.27 198.255H2.224C1.79333 198.255 1.476 198.153 1.272 197.949C1.09067 197.768 1 197.462 1 197.031V182.547ZM1 220.983V203.677C1 203.247 1.09067 202.929 1.272 202.725C1.476 202.544 1.79333 202.453 2.224 202.453H24.256C24.6867 202.453 24.9927 202.544 25.174 202.725C25.378 202.929 25.48 203.247 25.48 203.677V208.947C25.48 209.378 25.378 209.684 25.174 209.865C24.9927 210.069 24.6867 210.171 24.256 210.171H7.426V214.829H12.934C13.3647 214.829 13.6707 214.92 13.852 215.101C14.056 215.305 14.158 215.623 14.158 216.053V220.983C14.158 221.414 14.056 221.72 13.852 221.901C13.6707 222.105 13.3647 222.207 12.934 222.207H2.224C1.79333 222.207 1.476 222.105 1.272 221.901C1.09067 221.72 1 221.414 1 220.983Z" fill="#DAFEA4"/>
</svg>
